<svg xmlns="http://www.w3.org/2000/svg" width="32" height="32" viewBox="0 0 48 48">
  <rect width="48" height="48" rx="8" fill="#ffffff"/>
  <path fill="#EA4335" d="M24 12.5c3.6 0 6.4 1.3 8.4 2.4l6.2-6.1C35.1 6 30.3 4 24 4 14 4 5.9 9.7 2.5 18.1l7.6 5.9C12.5 18.1 17.7 12.5 24 12.5z"/>
  <path fill="#34A853" d="M46.5 24.5c0-1.6-.1-2.8-.4-4H24v8h12.9c-.6 3.3-3 6.1-7.1 8.1l7 5.3C43.9 36.4 46.5 30.9 46.5 24.5z"/>
  <path fill="#FBBC05" d="M9.9 30.9A14.9 14.9 0 0 1 8 24.5c0-1.4.2-2.7.6-3.9L1 15.2A23.6 23.6 0 0 0 0 24.5c0 3.8.9 7.4 2.5 10.6l7.4-4.2z"/>
  <path fill="#4285F4" d="M24 44c6.3 0 11.1-2 14.9-5.4l-7-5.3c-2 1.3-4.7 2.2-7.9 2.2-6.3 0-11.5-5.6-13.9-9.4L2.5 33.1C6 38.3 14 44 24 44z"/>
</svg>