<svg version="1.1" id="Layer_1" xmlns="http://www.w3.org/2000/svg" xmlns:xlink="http://www.w3.org/1999/xlink" x="0px" y="0px"
	 width="100%" viewBox="0 0 500 500" enable-background="new 0 0 500 500" xml:space="preserve">
<path fill="#000000" opacity="1.000000" stroke="none" 
	d="
M281.000000,501.000000 
	C187.333359,501.000000 94.166710,501.000000 1.000050,501.000000 
	C1.000033,334.333405 1.000033,167.666794 1.000017,1.000139 
	C167.666565,1.000093 334.333130,1.000093 500.999756,1.000046 
	C500.999847,167.666519 500.999847,334.333038 500.999939,500.999786 
	C427.833344,501.000000 354.666656,501.000000 281.000000,501.000000 
M404.545197,204.930954 
	C404.650391,204.610443 404.755615,204.289917 405.393890,203.567444 
	C405.758972,202.764801 406.124054,201.962158 406.996857,200.697861 
	C410.673157,194.407944 414.349457,188.118042 418.507050,181.856842 
	C418.792603,181.626938 418.883301,181.336227 419.324097,180.522995 
	C419.841797,179.469070 420.359497,178.415161 421.403076,177.014709 
	C422.524384,175.190842 423.721222,173.408600 424.753326,171.535568 
	C428.310883,165.079712 431.810944,158.592133 435.966461,151.923843 
	C436.979462,150.282013 437.992432,148.640182 439.568665,147.020065 
	C439.681366,146.677322 439.794037,146.334564 440.383698,145.671906 
	C440.683380,144.984451 440.983063,144.296997 441.851410,143.195541 
	C450.940552,128.073334 460.030304,112.951477 469.118561,97.828712 
	C472.376068,92.408241 475.719299,87.035706 478.810303,81.521828 
	C479.432220,80.412407 479.090057,78.762550 479.192383,77.361855 
	C477.805847,77.313484 476.255402,76.839066 475.063904,77.297577 
	C471.656097,78.608986 468.415192,80.346741 465.071198,81.832619 
	C443.643005,91.354141 422.204773,100.853119 400.000122,110.411880 
	C384.938629,117.101608 369.877167,123.791336 354.047455,130.544281 
	C345.951019,134.166016 337.854584,137.787750 329.271454,141.476410 
	C329.271454,141.476410 328.993103,141.881165 328.311188,141.940613 
	C327.951599,142.201981 327.592010,142.463348 326.575378,142.728165 
	C325.387177,143.277908 324.198975,143.827652 322.371094,144.374374 
	C321.433929,144.861771 320.496765,145.349152 319.213257,145.791275 
	C319.213257,145.791275 319.001160,146.068802 318.270660,146.107590 
	C310.855316,149.467087 303.439972,152.826584 295.294189,156.165237 
	C291.165070,158.050522 287.035980,159.935791 282.156677,161.860504 
	C268.679840,167.654587 269.794312,165.610489 278.250977,177.274170 
	C278.716614,177.916382 279.433228,178.376633 280.204346,179.577713 
	C282.415405,182.074677 284.626434,184.571655 286.926849,187.781433 
	C289.545685,191.210388 292.164490,194.639328 295.005249,198.726059 
	C297.666504,202.146973 300.327728,205.567886 303.172211,209.643616 
	C305.437256,212.428757 307.702301,215.213882 310.113647,218.634705 
	C310.697388,219.269196 311.281128,219.903687 311.844574,220.842102 
	C311.844574,220.842102 312.122437,220.966965 312.240997,221.634750 
	C314.491180,224.424835 316.741364,227.214920 319.188629,230.651596 
	C320.892059,232.742020 322.595520,234.832443 324.390259,237.477707 
	C324.905243,237.984146 325.420227,238.490585 326.082153,239.610168 
	C326.520752,240.043854 326.959351,240.477539 327.561768,241.544205 
	C331.357788,246.393372 335.153839,251.242538 339.084381,256.756561 
	C341.262543,259.557526 343.440704,262.358490 345.738953,265.761505 
	C346.139587,266.196014 346.540253,266.630524 347.079987,267.702911 
	C348.335541,269.168732 349.591095,270.634552 351.053528,272.763519 
	C356.280914,279.678223 356.284424,279.680542 361.099792,272.399994 
	C361.548096,271.722137 361.914948,270.990387 362.143616,270.131561 
	C362.143616,270.131561 362.279144,270.320587 362.844208,270.015869 
	C363.859161,268.656982 364.874146,267.298096 365.967194,265.956268 
	C365.967194,265.956268 365.933929,265.883606 366.474365,265.664215 
	C366.777924,265.180084 367.081451,264.695984 367.204498,264.183289 
	C367.204498,264.183289 367.211243,264.365875 367.779114,264.147064 
	C367.972504,263.799683 368.165894,263.452332 368.760803,262.968201 
	C369.005219,262.773529 369.107483,262.521271 369.581787,261.992371 
	C369.730835,261.663940 369.879883,261.335510 370.595276,260.673553 
	C371.386169,259.108978 372.177063,257.544434 373.460785,255.627106 
	C374.015411,254.564316 374.570007,253.501511 375.680176,252.040100 
	C376.195709,251.046677 376.711212,250.053253 377.755890,248.718002 
	C378.400238,247.451065 379.044586,246.184128 379.875610,244.777832 
	C379.875610,244.777832 379.875366,244.544876 380.326355,244.306427 
	C380.508667,243.852188 380.690979,243.397949 381.377350,242.596161 
	C381.951508,241.534424 382.525665,240.472687 383.632019,239.116852 
	C383.769836,238.745956 383.907623,238.375076 384.550629,237.749435 
	C384.742828,237.232742 384.935028,236.716049 385.682373,235.799652 
	C388.167969,231.546906 390.653595,227.294174 393.701691,222.664169 
	C394.425690,221.276215 395.149719,219.888260 396.387787,218.128937 
	C398.566803,214.415329 400.745789,210.701721 403.202087,206.884277 
	C403.202087,206.884277 403.136749,206.595459 403.688995,206.238876 
	C403.829285,205.833298 403.969543,205.427719 404.031616,205.036545 
	C404.031616,205.036545 404.051880,205.113434 404.545197,204.930954 
M161.150909,271.724579 
	C162.256058,275.864258 163.361221,280.003906 164.589722,284.928192 
	C165.178513,286.954773 165.767303,288.981323 166.350418,291.748932 
	C167.259766,294.830078 168.169098,297.911255 169.019684,301.791718 
	C171.375458,310.513916 173.731232,319.236084 176.016327,328.748962 
	C178.897629,339.380249 181.778915,350.011536 184.654343,361.403381 
	C187.450195,371.932190 190.246048,382.460999 192.991898,393.802551 
	C195.488724,403.416687 198.068039,413.010559 200.433044,422.657013 
	C201.160080,425.622437 202.471863,426.687164 205.312836,425.356262 
	C217.280411,419.749573 229.241409,414.128906 241.945053,408.358398 
	C247.688873,405.711670 253.432693,403.064972 259.910278,400.312103 
	C262.940033,398.861969 265.969757,397.411804 269.709686,395.947296 
	C272.171783,394.705292 274.633881,393.463287 277.837738,392.174225 
	C281.552887,390.399902 285.268066,388.625549 289.701416,386.825409 
	C295.135956,384.145447 300.570526,381.465485 306.711548,378.754028 
	C311.529358,376.306885 316.347137,373.859741 321.887604,371.295349 
	C326.246033,368.473602 330.604431,365.651825 335.613800,362.688751 
	C342.916656,357.262024 348.972321,350.856995 352.388794,341.410217 
	C355.445831,331.896515 355.024994,322.421844 352.186127,312.176697 
	C350.374207,306.699249 348.562286,301.221771 346.683594,294.966522 
	C344.969818,291.247681 343.256012,287.528870 341.400665,283.084656 
	C339.889832,280.406677 338.378998,277.728668 336.805298,274.355865 
	C334.858948,271.243103 332.912628,268.130341 330.928802,264.420105 
	C330.574982,263.952972 330.221191,263.485809 329.797455,262.404083 
	C329.492981,262.133850 329.188507,261.863617 328.928162,261.526642 
	C328.928162,261.526642 328.899323,261.452087 328.733765,260.796234 
	C327.803955,259.866058 326.874146,258.935913 326.049042,257.290802 
	C323.391602,253.518585 320.734161,249.746368 317.961426,245.372589 
	C317.557190,244.923584 317.152954,244.474579 316.741730,243.551956 
	C316.602020,243.233078 316.359894,243.048828 315.871582,242.335663 
	C313.791382,239.799988 311.711182,237.264313 309.481659,234.226410 
	C309.325043,234.149048 309.168457,234.071686 308.930359,233.455917 
	C308.625427,233.333771 308.320496,233.211624 307.488983,232.663406 
	C305.430511,230.072998 303.372009,227.482605 301.107025,224.292984 
	C300.777618,224.041992 300.448181,223.791016 299.947632,222.994461 
	C299.294403,222.333374 298.641205,221.672302 297.808594,220.364151 
	C295.585724,218.112808 293.362885,215.861465 291.095764,213.194595 
	C290.939453,212.916183 290.703094,212.798615 290.123169,212.209946 
	C288.033203,210.151978 285.943207,208.094009 283.649658,205.408234 
	C280.814453,202.808228 277.979279,200.208221 274.900269,197.027481 
	C273.286407,195.675537 271.672577,194.323593 269.799896,192.349930 
	C266.866791,189.970734 263.933716,187.591522 260.471893,184.878250 
	C259.660431,184.253159 258.848999,183.628082 258.068939,182.386490 
	C257.423615,181.904190 256.778290,181.421875 255.851227,180.321503 
	C247.607635,174.436493 239.364059,168.551498 230.757874,162.117554 
	C224.505188,158.451431 218.252518,154.785309 211.544678,150.591110 
	C203.037949,146.367004 194.531219,142.142883 185.571976,137.391266 
	C177.714920,134.250061 169.857880,131.108856 161.875961,127.747009 
	C161.875961,127.747009 161.635742,127.828049 161.181488,127.307266 
	C160.120483,126.931061 159.059479,126.554855 157.374252,125.785431 
	C150.245377,123.294960 143.116486,120.804482 135.481201,117.989594 
	C135.088989,117.958519 134.696777,117.927452 134.029816,117.481247 
	C133.724487,117.273819 133.407013,117.253151 132.428528,116.983635 
	C126.857491,115.255051 121.286453,113.526466 115.129807,111.275749 
	C108.877548,109.233627 102.650627,107.109703 96.368500,105.164032 
	C73.361656,98.038467 50.347610,90.935287 27.292603,83.968201 
	C25.782576,83.511879 23.906023,84.268425 22.199961,84.460815 
	C22.403124,86.160835 22.099522,88.153687 22.886824,89.516167 
	C32.081039,105.427376 41.439404,121.243729 50.851673,137.809158 
	C55.259811,145.190201 59.667953,152.571228 64.107925,160.676071 
	C69.702942,169.864883 75.297966,179.053696 81.044838,188.898056 
	C87.057487,196.845963 93.070137,204.793854 99.307045,213.392166 
	C108.848289,222.630478 118.389534,231.868805 127.982048,241.029099 
	C127.982048,241.029099 127.898026,241.069809 128.167221,241.665161 
	C129.422012,242.505005 130.676804,243.344833 132.272232,244.751480 
	C140.499847,249.880402 148.727463,255.009323 157.327087,260.689819 
	C158.059006,261.511505 158.790909,262.333191 159.471313,263.863922 
	C160.050140,266.225250 160.628952,268.586548 161.150909,271.724579 
z"/>
<path fill="#97B9FC" opacity="1.000000" stroke="none" 
	d="
M400.769836,110.359497 
	C422.204773,100.853119 443.643005,91.354141 465.071198,81.832619 
	C468.415192,80.346741 471.656097,78.608986 475.063904,77.297577 
	C476.255402,76.839066 477.805847,77.313484 479.192383,77.361855 
	C479.090057,78.762550 479.432220,80.412407 478.810303,81.521828 
	C475.719299,87.035706 472.376068,92.408241 469.118561,97.828712 
	C460.030304,112.951477 450.940552,128.073334 441.494080,142.996979 
	C439.874847,141.349472 438.862671,139.082321 437.303711,138.606476 
	C432.796814,137.230759 427.818634,137.203033 423.496002,135.471512 
	C418.639038,133.525894 414.976654,133.544449 411.612915,137.821960 
	C409.739288,140.204636 407.342224,140.689468 404.561951,139.007263 
	C399.499756,135.944382 397.489441,136.328308 393.534668,140.776947 
	C390.898346,143.742416 388.685516,147.343887 385.502594,149.517914 
	C373.312408,157.844131 361.471100,166.539352 351.807861,177.802719 
	C349.166534,180.881409 347.251831,184.583420 344.938843,188.391846 
	C344.582703,191.184311 344.291351,193.584305 343.836151,196.280731 
	C341.448578,198.380295 339.224915,200.183426 336.537903,201.987656 
	C332.050568,201.980286 328.026489,201.971832 324.013977,201.591309 
	C326.120453,197.543243 327.662781,193.368027 330.432678,190.301712 
	C335.261719,184.955826 341.918915,181.027191 345.908264,175.202164 
	C356.574554,159.627823 368.462006,145.143753 381.152222,131.237900 
	C382.890411,129.333191 384.440369,126.943352 385.173462,124.506195 
	C386.353394,120.583481 388.272034,118.541946 392.526306,117.699150 
	C396.251526,116.961143 400.014069,115.027184 400.769836,110.359497 
z"/>
<path fill="#FDAE8C" opacity="1.000000" stroke="none" 
	d="
M64.076096,159.952271 
	C59.667953,152.571228 55.259811,145.190201 51.159943,137.386353 
	C52.668446,136.118958 54.069527,135.457062 55.033367,134.397461 
	C58.769943,130.289658 63.100327,128.354584 68.842583,127.695847 
	C75.562263,126.924980 81.898552,123.725708 86.176910,118.063713 
	C88.985199,114.347214 92.416077,113.085701 96.828842,112.945152 
	C103.129669,112.744461 109.578094,114.674782 115.715416,111.797882 
	C121.286453,113.526466 126.857491,115.255051 132.932587,117.336426 
	C133.707870,117.833984 133.997177,117.903046 134.304565,117.896385 
	C134.696777,117.927452 135.088989,117.958519 135.731842,118.520081 
	C135.855209,122.584557 133.858521,124.191353 130.560638,125.109970 
	C129.136169,125.506752 127.778778,127.127045 126.957947,128.524582 
	C124.463364,132.771866 123.595978,138.397385 116.682571,138.262100 
	C115.211952,138.233307 113.362061,140.158554 112.263382,141.617630 
	C107.892868,147.421814 103.791695,152.806686 95.749313,154.653702 
	C91.063736,155.729828 87.183098,160.310806 82.517090,163.268768 
	C76.087967,162.132553 70.082031,161.042404 64.076096,159.952271 
z"/>
<path fill="#FBAC91" opacity="1.000000" stroke="none" 
	d="
M115.422607,111.536819 
	C109.578094,114.674782 103.129669,112.744461 96.828842,112.945152 
	C92.416077,113.085701 88.985199,114.347214 86.176910,118.063713 
	C81.898552,123.725708 75.562263,126.924980 68.842583,127.695847 
	C63.100327,128.354584 58.769943,130.289658 55.033367,134.397461 
	C54.069527,135.457062 52.668446,136.118958 51.111298,137.024353 
	C41.439404,121.243729 32.081039,105.427376 22.886824,89.516167 
	C22.099522,88.153687 22.403124,86.160835 22.199961,84.460815 
	C23.906023,84.268425 25.782576,83.511879 27.292603,83.968201 
	C50.347610,90.935287 73.361656,98.038467 96.368500,105.164032 
	C102.650627,107.109703 108.877548,109.233627 115.422607,111.536819 
z"/>
<path fill="#F5B289" opacity="1.000000" stroke="none" 
	d="
M82.940292,163.314850 
	C87.183098,160.310806 91.063736,155.729828 95.749313,154.653702 
	C103.791695,152.806686 107.892868,147.421814 112.263382,141.617630 
	C113.362061,140.158554 115.211952,138.233307 116.682571,138.262100 
	C123.595978,138.397385 124.463364,132.771866 126.957947,128.524582 
	C127.778778,127.127045 129.136169,125.506752 130.560638,125.109970 
	C133.858521,124.191353 135.855209,122.584557 135.985046,118.682289 
	C143.116486,120.804482 150.245377,123.294960 157.812897,126.328926 
	C159.379623,127.190964 160.507675,127.509506 161.635742,127.828049 
	C161.635742,127.828049 161.875961,127.747009 161.981079,128.196686 
	C161.618729,129.983536 161.486542,132.183243 160.628876,132.516632 
	C155.422897,134.540268 153.020660,139.008636 150.095825,143.212204 
	C147.843063,146.449829 145.373932,149.982895 142.137390,151.996414 
	C135.564377,156.085632 132.426682,164.396210 123.606178,165.893387 
	C119.808929,166.537918 116.473648,169.904129 112.543365,172.016968 
	C102.418922,169.105011 92.679604,166.209930 82.940292,163.314850 
z"/>
<path fill="#E9BA83" opacity="1.000000" stroke="none" 
	d="
M186.024490,137.918762 
	C194.531219,142.142883 203.037949,146.367004 211.755615,151.219528 
	C208.924622,155.999481 206.310822,160.157516 202.053345,163.687180 
	C192.609634,171.516556 184.411972,180.847595 175.691559,189.551636 
	C173.482086,191.756943 171.217468,193.906982 168.642578,195.955353 
	C157.860138,190.925278 147.413300,186.022247 137.044968,180.784149 
	C137.915909,180.106964 139.103119,179.248871 139.437851,179.504974 
	C141.947052,181.424698 143.843369,180.717178 145.971817,178.765808 
	C150.732834,174.400894 155.496307,170.005539 160.587479,166.045151 
	C164.168518,163.259491 168.376068,161.293686 172.132172,158.711990 
	C173.769653,157.586502 175.214691,155.995728 176.333801,154.337341 
	C179.271698,149.983780 180.775848,144.283966 187.315491,143.548279 
	C187.906906,143.481750 188.392456,142.474335 188.978088,141.849533 
	C187.895447,140.408707 186.959961,139.163727 186.024490,137.918762 
z"/>
<path fill="#EFB686" opacity="1.000000" stroke="none" 
	d="
M185.798233,137.655014 
	C186.959961,139.163727 187.895447,140.408707 188.978088,141.849533 
	C188.392456,142.474335 187.906906,143.481750 187.315491,143.548279 
	C180.775848,144.283966 179.271698,149.983780 176.333801,154.337341 
	C175.214691,155.995728 173.769653,157.586502 172.132172,158.711990 
	C168.376068,161.293686 164.168518,163.259491 160.587479,166.045151 
	C155.496307,170.005539 150.732834,174.400894 145.971817,178.765808 
	C143.843369,180.717178 141.947052,181.424698 139.437851,179.504974 
	C139.103119,179.248871 137.915909,180.106964 136.696625,180.729523 
	C135.813477,180.897232 135.357193,180.784485 134.768494,180.527344 
	C134.431473,180.209335 134.200058,180.085785 133.570892,179.983032 
	C127.476685,177.966812 121.753448,175.979874 115.909874,173.826141 
	C115.596069,173.443588 115.354485,173.334045 114.737160,173.244141 
	C113.967354,173.068970 113.525177,172.980408 113.050797,172.676193 
	C113.018600,172.460541 112.928497,172.033859 112.928497,172.033859 
	C116.473648,169.904129 119.808929,166.537918 123.606178,165.893387 
	C132.426682,164.396210 135.564377,156.085632 142.137390,151.996414 
	C145.373932,149.982895 147.843063,146.449829 150.095825,143.212204 
	C153.020660,139.008636 155.422897,134.540268 160.628876,132.516632 
	C161.486542,132.183243 161.618729,129.983536 162.043518,128.306992 
	C169.857880,131.108856 177.714920,134.250061 185.798233,137.655014 
z"/>
<path fill="#9CBFFF" opacity="1.000000" stroke="none" 
	d="
M345.003662,187.999390 
	C347.251831,184.583420 349.166534,180.881409 351.807861,177.802719 
	C361.471100,166.539352 373.312408,157.844131 385.502594,149.517914 
	C388.685516,147.343887 390.898346,143.742416 393.534668,140.776947 
	C397.489441,136.328308 399.499756,135.944382 404.561951,139.007263 
	C407.342224,140.689468 409.739288,140.204636 411.612915,137.821960 
	C414.976654,133.544449 418.639038,133.525894 423.496002,135.471512 
	C427.818634,137.203033 432.796814,137.230759 437.303711,138.606476 
	C438.862671,139.082321 439.874847,141.349472 441.209778,143.203979 
	C440.983063,144.296997 440.683380,144.984451 439.953979,145.959457 
	C439.288116,146.453812 439.115173,146.704269 439.005402,146.998352 
	C437.992432,148.640182 436.979462,150.282013 435.290527,152.050964 
	C431.922699,154.116104 429.385223,157.368393 426.505371,157.706741 
	C421.214081,158.328430 415.658234,157.622025 410.328186,156.757202 
	C403.625092,155.669617 398.672974,158.779938 393.453979,162.097260 
	C389.239929,164.775818 384.548523,166.693573 380.130249,169.063324 
	C375.229675,171.691757 369.593933,173.615036 365.723663,177.345062 
	C359.711609,183.139267 353.138214,186.825378 345.003662,187.999390 
z"/>
<path fill="#DBC17A" opacity="1.000000" stroke="none" 
	d="
M231.120468,162.666489 
	C239.364059,168.551498 247.607635,174.436493 255.548859,180.648590 
	C251.721664,181.974045 247.654633,182.186707 244.800217,184.156525 
	C240.609070,187.048782 237.195145,191.111023 233.617584,194.835678 
	C230.391479,198.194458 226.989243,201.495514 224.383209,205.312592 
	C220.353943,211.214310 212.286194,213.828659 210.715042,221.769669 
	C206.946960,219.423904 203.490417,217.205307 199.823090,214.723038 
	C195.706116,211.759354 191.799911,209.059341 188.047333,206.027954 
	C189.174759,204.840591 190.117355,203.945679 191.127930,203.135529 
	C194.815887,200.179001 198.713531,197.454742 202.188843,194.268494 
	C208.959702,188.060852 215.959961,182.000061 221.951569,175.086655 
	C225.258301,171.271194 231.653641,169.380325 231.120468,162.666489 
z"/>
<path fill="#E2BD7F" opacity="1.000000" stroke="none" 
	d="
M230.939178,162.392029 
	C231.653641,169.380325 225.258301,171.271194 221.951569,175.086655 
	C215.959961,182.000061 208.959702,188.060852 202.188843,194.268494 
	C198.713531,197.454742 194.815887,200.179001 191.127930,203.135529 
	C190.117355,203.945679 189.174759,204.840591 187.703217,205.897888 
	C181.129730,202.760284 175.053955,199.421356 168.978180,196.082428 
	C171.217468,193.906982 173.482086,191.756943 175.691559,189.551636 
	C184.411972,180.847595 192.609634,171.516556 202.053345,163.687180 
	C206.310822,160.157516 208.924622,155.999481 211.983200,151.483551 
	C218.252518,154.785309 224.505188,158.451431 230.939178,162.392029 
z"/>
<path fill="#8FB5FD" opacity="1.000000" stroke="none" 
	d="
M400.384979,110.385696 
	C400.014069,115.027184 396.251526,116.961143 392.526306,117.699150 
	C388.272034,118.541946 386.353394,120.583481 385.173462,124.506195 
	C384.440369,126.943352 382.890411,129.333191 381.152222,131.237900 
	C368.462006,145.143753 356.574554,159.627823 345.908264,175.202164 
	C341.918915,181.027191 335.261719,184.955826 330.432678,190.301712 
	C327.662781,193.368027 326.120453,197.543243 323.636658,201.601318 
	C322.492615,201.991562 321.737396,201.999741 320.820068,201.713928 
	C319.106842,198.947235 317.555695,196.474548 316.058044,193.659454 
	C320.217896,189.328262 324.314178,185.329041 328.433075,181.353256 
	C334.006409,175.973587 338.339203,169.833481 340.760773,162.369537 
	C341.827362,159.081909 343.261230,155.881683 344.831116,152.795792 
	C347.974640,146.616531 351.396881,140.578918 354.525848,134.392654 
	C355.070709,133.315506 354.741302,131.796173 354.815674,130.481064 
	C369.877167,123.791336 384.938629,117.101608 400.384979,110.385696 
z"/>
<path fill="#A0C3FD" opacity="1.000000" stroke="none" 
	d="
M344.938843,188.391846 
	C353.138214,186.825378 359.711609,183.139267 365.723663,177.345062 
	C369.593933,173.615036 375.229675,171.691757 380.130249,169.063324 
	C384.548523,166.693573 389.239929,164.775818 393.453979,162.097260 
	C398.672974,158.779938 403.625092,155.669617 410.328186,156.757202 
	C415.658234,157.622025 421.214081,158.328430 426.505371,157.706741 
	C429.385223,157.368393 431.922699,154.116104 434.973724,152.147369 
	C431.810944,158.592133 428.310883,165.079712 424.753326,171.535568 
	C423.721222,173.408600 422.524384,175.190842 420.706635,177.112396 
	C414.240326,179.550003 408.424988,180.435257 402.398895,178.056366 
	C401.551453,177.721848 400.373413,177.905640 399.436157,178.165756 
	C386.053833,181.879944 372.649017,185.523193 359.347473,189.509995 
	C356.690277,190.306412 354.441040,192.463974 351.614838,193.997864 
	C348.817352,194.662659 346.408661,195.323486 344.000000,195.984314 
	C344.291351,193.584305 344.582703,191.184311 344.938843,188.391846 
z"/>
<path fill="#ADCBFE" opacity="1.000000" stroke="none" 
	d="
M297.987976,221.011215 
	C298.641205,221.672302 299.294403,222.333374 300.146912,223.560394 
	C300.668610,224.381622 300.991058,224.636917 301.313507,224.892212 
	C303.372009,227.482605 305.430511,230.072998 307.876770,233.069321 
	C308.467560,233.714645 308.716675,233.887665 309.011902,233.994324 
	C309.168457,234.071686 309.325043,234.149048 309.204987,234.635101 
	C303.164673,237.876205 298.947205,241.814590 297.469055,248.518478 
	C297.006989,250.614151 294.686310,252.557602 292.797302,254.034805 
	C285.975616,259.369537 279.181091,264.559021 276.160522,273.285522 
	C275.603241,274.895569 272.902679,275.763733 270.971558,276.722198 
	C269.161713,274.983978 267.571686,273.497864 265.705261,271.821960 
	C263.581451,269.168945 261.734039,266.705688 259.913208,263.822571 
	C260.193542,258.187286 262.317169,254.091599 266.394165,250.638321 
	C270.892639,246.828110 276.105988,243.099258 278.839508,238.139786 
	C283.372467,229.915588 290.369476,225.321625 297.987976,221.011215 
z"/>
<path fill="#BDB7FB" opacity="1.000000" stroke="none" 
	d="
M241.204803,408.513336 
	C229.241409,414.128906 217.280411,419.749573 205.312836,425.356262 
	C202.471863,426.687164 201.160080,425.622437 200.433044,422.657013 
	C198.068039,413.010559 195.488724,403.416687 193.409805,393.382416 
	C198.786377,392.308197 203.743378,391.155762 208.704147,391.139374 
	C213.720474,391.122803 218.108398,390.129974 222.298691,387.167175 
	C224.486954,389.736755 226.257401,392.245636 228.290878,394.519287 
	C232.521744,399.249969 236.891891,403.856049 241.204803,408.513336 
z"/>
<path fill="#A6C3FE" opacity="1.000000" stroke="none" 
	d="
M271.191376,276.974304 
	C272.902679,275.763733 275.603241,274.895569 276.160522,273.285522 
	C279.181091,264.559021 285.975616,259.369537 292.797302,254.034805 
	C294.686310,252.557602 297.006989,250.614151 297.469055,248.518478 
	C298.947205,241.814590 303.164673,237.876205 309.279663,234.886215 
	C311.711182,237.264313 313.791382,239.799988 316.022400,242.866730 
	C316.314240,243.653625 316.506042,243.862885 316.748718,244.025574 
	C317.152954,244.474579 317.557190,244.923584 317.764038,245.910110 
	C311.972382,254.203903 306.589783,262.124908 300.719543,269.666443 
	C295.648590,276.181122 290.045837,282.283936 284.611176,288.510376 
	C284.012604,289.196198 282.973328,289.497406 281.922852,289.715027 
	C278.201965,285.293488 274.696655,281.133911 271.191376,276.974304 
z"/>
<path fill="#B8BAFD" opacity="1.000000" stroke="none" 
	d="
M222.000000,386.999969 
	C218.108398,390.129974 213.720474,391.122803 208.704147,391.139374 
	C203.743378,391.155762 198.786377,392.308197 193.434814,392.976044 
	C190.246048,382.460999 187.450195,371.932190 184.951630,360.672882 
	C189.832611,359.627441 194.416306,359.312500 199.312744,359.145020 
	C202.251999,360.953583 204.883575,362.606720 207.503754,364.277679 
	C211.006577,366.511627 214.500595,368.759399 218.056198,371.372498 
	C219.409348,376.829163 220.704666,381.914581 222.000000,386.999969 
z"/>
<path fill="#ABA2FD" opacity="1.000000" stroke="none" 
	d="
M277.095978,392.221313 
	C274.633881,393.463287 272.171783,394.705292 269.335999,395.598083 
	C268.842163,394.770111 268.874390,394.149292 268.579742,393.833313 
	C259.922516,384.548340 250.672913,375.744202 242.737167,365.882172 
	C237.070801,358.840332 229.454453,355.807617 222.000443,351.631348 
	C219.325180,346.177765 216.665344,341.091644 214.434021,336.005676 
	C216.577499,336.001465 218.292496,335.997070 220.351532,336.048767 
	C224.799500,338.739441 228.903412,341.373993 233.057877,344.348511 
	C236.807495,348.683228 239.901688,353.600647 244.320480,356.497620 
	C256.939178,364.770416 265.404846,376.909882 275.202637,387.818268 
	C276.214081,388.944366 276.482697,390.737610 277.095978,392.221313 
z"/>
<path fill="#B8B1FD" opacity="1.000000" stroke="none" 
	d="
M222.298691,387.167175 
	C220.704666,381.914581 219.409348,376.829163 218.403091,371.322571 
	C220.795395,369.934265 222.898605,368.967224 225.296326,368.161682 
	C238.161163,377.582581 249.474075,388.157776 259.176514,400.418243 
	C253.432693,403.064972 247.688873,405.711670 241.574921,408.435852 
	C236.891891,403.856049 232.521744,399.249969 228.290878,394.519287 
	C226.257401,392.245636 224.486954,389.736755 222.298691,387.167175 
z"/>
<path fill="#85AEFC" opacity="1.000000" stroke="none" 
	d="
M354.431580,130.512665 
	C354.741302,131.796173 355.070709,133.315506 354.525848,134.392654 
	C351.396881,140.578918 347.974640,146.616531 344.831116,152.795792 
	C343.261230,155.881683 341.827362,159.081909 340.760773,162.369537 
	C338.339203,169.833481 334.006409,175.973587 328.433075,181.353256 
	C324.314178,185.329041 320.217896,189.328262 315.657410,193.665222 
	C314.135376,194.007721 313.067474,194.002029 312.013153,193.607452 
	C313.252289,189.612137 313.397675,184.567810 315.912964,182.678329 
	C322.533691,177.704895 325.245819,170.599121 328.317688,163.742249 
	C331.483154,156.676514 336.213959,149.275284 329.758118,141.409485 
	C337.854584,137.787750 345.951019,134.166016 354.431580,130.512665 
z"/>
<path fill="#A6C9FC" opacity="1.000000" stroke="none" 
	d="
M352.003662,193.993896 
	C354.441040,192.463974 356.690277,190.306412 359.347473,189.509995 
	C372.649017,185.523193 386.053833,181.879944 399.436157,178.165756 
	C400.373413,177.905640 401.551453,177.721848 402.398895,178.056366 
	C408.424988,180.435257 414.240326,179.550003 420.443695,177.285660 
	C420.359497,178.415161 419.841797,179.469070 418.895325,180.864441 
	C418.273163,181.380371 418.126221,181.587784 418.025757,181.828125 
	C414.349457,188.118042 410.673157,194.407944 406.406250,200.725800 
	C403.876373,200.166504 401.937164,199.579285 399.902466,198.641464 
	C392.288910,196.194061 384.867065,192.952362 377.226624,192.309601 
	C368.924957,191.611237 360.419983,193.329407 352.003662,193.993896 
z"/>
<path fill="#A09363" opacity="1.000000" stroke="none" 
	d="
M112.543365,172.016968 
	C112.928497,172.033859 113.018600,172.460541 112.817657,172.953522 
	C110.443947,174.142975 108.110756,175.717361 106.131348,175.355667 
	C101.826286,174.569000 100.847229,176.385071 100.702438,180.186188 
	C100.262077,182.919006 100.130157,185.458893 99.608444,187.983917 
	C93.433365,186.830704 87.648087,185.692322 81.514214,184.485367 
	C81.309486,185.723541 81.101234,186.983032 80.892982,188.242508 
	C75.297966,179.053696 69.702942,169.864883 64.092010,160.314178 
	C70.082031,161.042404 76.087967,162.132553 82.517097,163.268768 
	C92.679604,166.209930 102.418922,169.105011 112.543365,172.016968 
z"/>
<path fill="#9B8DFD" opacity="1.000000" stroke="none" 
	d="
M306.005096,378.785553 
	C300.570526,381.465485 295.135956,384.145447 289.110809,386.610382 
	C286.652863,384.549438 284.720581,382.764099 282.930389,380.846191 
	C277.649078,375.188385 272.941986,368.858765 267.054199,363.935181 
	C258.481049,356.766052 249.073669,350.594452 239.872528,343.692444 
	C236.486511,338.925751 233.249969,334.464142 230.399490,330.007019 
	C233.192215,330.675110 235.598862,331.338776 238.345169,332.055664 
	C242.324783,335.440277 245.715820,339.111542 249.673004,342.009796 
	C253.832581,345.056244 258.534088,347.362793 263.159119,350.284851 
	C271.805939,359.139038 280.221222,367.773285 288.807648,376.233887 
	C293.377808,380.737091 296.898743,379.621582 300.291321,372.856171 
	C301.711304,371.463501 302.852264,370.228241 304.373230,369.008820 
	C307.848175,369.350677 308.355011,371.185455 307.541351,373.797607 
	C307.023926,375.458588 306.516815,377.122803 306.005096,378.785553 
z"/>
<path fill="#8792FD" opacity="1.000000" stroke="none" 
	d="
M346.750366,295.744324 
	C348.562286,301.221771 350.374207,306.699249 351.789551,312.723206 
	C345.087097,317.468353 338.629517,321.460205 332.528503,325.937897 
	C328.431061,328.945160 326.891357,334.964233 320.630402,335.989960 
	C315.814697,334.317810 311.367371,332.659332 306.707886,330.763489 
	C306.273987,329.708038 306.052216,328.889954 306.185669,328.095581 
	C308.650665,327.614868 311.403229,327.788055 312.765625,326.495728 
	C321.413208,318.292755 329.650970,309.658752 338.261169,301.414703 
	C340.681671,299.097168 343.898682,297.611511 346.750366,295.744324 
z"/>
<path fill="#B1ACFE" opacity="1.000000" stroke="none" 
	d="
M259.543396,400.365173 
	C249.474075,388.157776 238.161163,377.582581 225.236435,367.783081 
	C223.253281,362.162994 221.624496,357.083038 220.332336,352.002075 
	C221.117905,352.000366 221.566895,351.999573 222.015869,351.998779 
	C229.454453,355.807617 237.070801,358.840332 242.737167,365.882172 
	C250.672913,375.744202 259.922516,384.548340 268.579742,393.833313 
	C268.874390,394.149292 268.842163,394.770111 268.980896,395.605225 
	C265.969757,397.411804 262.940033,398.861969 259.543396,400.365173 
z"/>
<path fill="#7CA9FD" opacity="1.000000" stroke="none" 
	d="
M329.514771,141.442932 
	C336.213959,149.275284 331.483154,156.676514 328.317688,163.742249 
	C325.245819,170.599121 322.533691,177.704895 315.912964,182.678329 
	C313.397675,184.567810 313.252289,189.612137 311.979492,193.902908 
	C311.620880,195.073349 311.309479,195.559433 310.608887,195.966278 
	C307.141907,195.256226 304.064056,194.625412 300.990173,193.540771 
	C300.996887,190.056381 300.999664,187.025818 301.301636,183.832550 
	C304.025208,180.636551 306.596924,177.707626 308.838531,174.544800 
	C312.005310,170.076569 315.838806,165.771194 317.683502,160.768021 
	C319.326416,156.312088 318.652557,151.001953 319.001160,146.068802 
	C319.001160,146.068802 319.213257,145.791275 319.741760,145.860748 
	C321.183746,145.412598 322.097260,144.894989 323.010773,144.377380 
	C324.198975,143.827652 325.387177,143.277908 327.245148,142.697662 
	C328.274323,142.405167 328.633728,142.143173 328.993103,141.881165 
	C328.993103,141.881165 329.271454,141.476410 329.514771,141.442932 
z"/>
<path fill="#B4CBE0" opacity="1.000000" stroke="none" 
	d="
M402.924774,206.988098 
	C400.745789,210.701721 398.566803,214.415329 395.754578,218.105713 
	C393.325775,217.064911 391.534637,215.190536 389.733704,215.181030 
	C382.691254,215.143875 375.540344,215.063675 368.632050,216.214172 
	C362.211853,217.283386 355.188477,218.641800 350.014191,222.185196 
	C344.798340,225.757095 340.009766,227.529648 334.012878,226.596802 
	C334.946533,224.025665 335.411896,221.418625 336.920502,219.761032 
	C340.696106,215.612564 344.944641,211.894531 349.439331,208.002975 
	C367.558411,207.664108 385.241577,207.326111 402.924774,206.988098 
z"/>
<path fill="#ACA47C" opacity="1.000000" stroke="none" 
	d="
M159.522812,263.154877 
	C158.790909,262.333191 158.059006,261.511505 157.153625,259.982727 
	C156.989258,258.617767 156.875931,257.930328 157.026596,257.306671 
	C158.364685,251.767715 157.420792,247.309265 151.699814,244.646179 
	C150.819305,244.236282 150.509323,242.512833 150.025192,241.359207 
	C149.218506,239.436996 148.414642,237.508362 147.736343,235.538773 
	C146.763474,232.713913 145.904510,229.849792 144.999695,226.746109 
	C145.005142,226.318924 145.007797,226.148056 145.415771,225.980392 
	C148.178375,226.635742 150.663635,227.004288 152.866669,227.998322 
	C157.653168,230.158051 162.295578,232.637100 167.149811,235.270294 
	C168.535141,237.037674 169.767548,238.520401 170.998077,240.385956 
	C171.339294,244.544235 170.924469,248.606430 172.216812,252.022827 
	C173.843399,256.322784 176.472168,260.008392 171.566528,263.828552 
	C170.910904,264.339081 171.150696,265.999420 170.605408,267.102722 
	C166.664276,265.770355 163.093536,264.462616 159.522812,263.154877 
z"/>
<path fill="#BECED6" opacity="1.000000" stroke="none" 
	d="
M334.019440,226.993103 
	C340.009766,227.529648 344.798340,225.757095 350.014191,222.185196 
	C355.188477,218.641800 362.211853,217.283386 368.632050,216.214172 
	C375.540344,215.063675 382.691254,215.143875 389.733704,215.181030 
	C391.534637,215.190536 393.325775,217.064911 395.497559,218.291397 
	C395.149719,219.888260 394.425690,221.276215 392.985260,222.841370 
	C385.571106,223.428040 378.752380,223.182281 372.202484,224.392120 
	C360.816315,226.495255 349.035797,228.148026 340.685577,237.723511 
	C339.778687,238.763489 338.247650,239.259186 336.602234,240.019897 
	C333.264893,240.325363 330.331421,240.618286 327.397980,240.911194 
	C326.959351,240.477539 326.520752,240.043854 326.124023,239.055618 
	C326.224487,238.328110 326.283081,238.155136 326.662415,237.910751 
	C329.328583,234.223938 331.674011,230.608521 334.019440,226.993103 
z"/>
<path fill="#A498FE" opacity="1.000000" stroke="none" 
	d="
M240.021988,343.997559 
	C249.073669,350.594452 258.481049,356.766052 267.054199,363.935181 
	C272.941986,368.858765 277.649078,375.188385 282.930389,380.846191 
	C284.720581,382.764099 286.652863,384.549438 288.751709,386.623291 
	C285.268066,388.625549 281.552887,390.399902 277.466858,392.197754 
	C276.482697,390.737610 276.214081,388.944366 275.202637,387.818268 
	C265.404846,376.909882 256.939178,364.770416 244.320480,356.497620 
	C239.901688,353.600647 236.807495,348.683228 233.495239,344.344482 
	C235.928696,343.999512 237.975342,343.998535 240.021988,343.997559 
z"/>
<path fill="#B2A471" opacity="1.000000" stroke="none" 
	d="
M144.996933,227.002441 
	C145.904510,229.849792 146.763474,232.713913 147.736343,235.538773 
	C148.414642,237.508362 149.218506,239.436996 150.025192,241.359207 
	C150.509323,242.512833 150.819305,244.236282 151.699814,244.646179 
	C157.420792,247.309265 158.364685,251.767715 157.026596,257.306671 
	C156.875931,257.930328 156.989258,258.617767 156.967621,259.706940 
	C148.727463,255.009323 140.499847,249.880402 132.068390,244.101257 
	C130.542389,242.657288 129.220200,241.863556 127.898026,241.069809 
	C127.898026,241.069809 127.982048,241.029099 127.989960,240.684296 
	C128.814667,239.231461 129.689636,238.160873 130.433243,237.005707 
	C131.320755,235.626953 132.419571,234.240067 132.721985,232.716751 
	C132.812592,232.260361 130.518051,231.375031 129.365799,230.611420 
	C128.614731,230.113647 127.254593,229.259872 127.355331,228.941620 
	C129.073578,223.513275 125.013145,220.107727 123.356964,216.053375 
	C124.892715,216.673645 126.086937,217.214279 127.250389,217.814514 
	C133.170288,220.868668 139.082214,223.938263 144.996933,227.002441 
z"/>
<path fill="#8486FD" opacity="1.000000" stroke="none" 
	d="
M320.998779,336.003662 
	C326.891357,334.964233 328.431061,328.945160 332.528503,325.937897 
	C338.629517,321.460205 345.087097,317.468353 351.731201,313.122711 
	C355.024994,322.421844 355.445831,331.896515 351.667816,341.692993 
	C345.635406,341.967407 340.324005,341.959015 334.766724,341.691711 
	C330.014801,339.958069 325.508698,338.483307 321.001282,336.757324 
	C320.999603,336.338623 320.999207,336.171143 320.998779,336.003662 
z"/>
<path fill="#6E9CF8" opacity="1.000000" stroke="none" 
	d="
M318.635925,146.088196 
	C318.652557,151.001953 319.326416,156.312088 317.683502,160.768021 
	C315.838806,165.771194 312.005310,170.076569 308.838531,174.544800 
	C306.596924,177.707626 304.025208,180.636551 301.001434,183.708130 
	C298.898346,183.929520 297.394714,184.112671 295.970459,184.286148 
	C295.001373,183.213730 294.000092,182.105637 293.058899,180.623489 
	C295.726074,172.426163 298.294250,164.598206 296.024628,156.186081 
	C303.439972,152.826584 310.855316,149.467087 318.635925,146.088196 
z"/>
<path fill="#8A9BFE" opacity="1.000000" stroke="none" 
	d="
M346.716980,295.355408 
	C343.898682,297.611511 340.681671,299.097168 338.261169,301.414703 
	C329.650970,309.658752 321.413208,318.292755 312.765625,326.495728 
	C311.403229,327.788055 308.650665,327.614868 305.958527,327.939026 
	C304.929230,327.169922 304.482330,326.581116 303.993073,325.649475 
	C303.625427,324.206451 303.300140,323.106232 303.342224,321.993408 
	C304.964020,321.061707 306.414062,320.320953 307.440796,319.194427 
	C313.661011,312.370087 319.621094,305.301727 325.993042,298.624969 
	C330.930023,293.451813 336.341583,288.731598 341.542206,283.810059 
	C343.256012,287.528870 344.969818,291.247681 346.716980,295.355408 
z"/>
<path fill="#9380FD" opacity="1.000000" stroke="none" 
	d="
M320.630402,335.989960 
	C320.999207,336.171143 320.999603,336.338623 320.931000,337.168213 
	C320.574860,339.947296 319.989929,342.073029 320.052002,344.179749 
	C320.319489,353.260437 320.776733,362.335480 321.164917,371.412598 
	C316.347137,373.859741 311.529358,376.306885 306.358337,378.769775 
	C306.516815,377.122803 307.023926,375.458588 307.541351,373.797607 
	C308.355011,371.185455 307.848175,369.350677 304.375122,368.635773 
	C304.000427,367.500458 304.003845,366.754059 304.304657,365.821869 
	C305.403412,363.425354 306.204742,361.214630 307.163818,358.656067 
	C307.875092,354.526489 308.428619,350.744751 308.986023,346.528046 
	C308.299957,341.062347 307.609985,336.031586 306.920044,331.000854 
	C311.367371,332.659332 315.814697,334.317810 320.630402,335.989960 
z"/>
<path fill="#C4CCC3" opacity="1.000000" stroke="none" 
	d="
M275.144073,197.608215 
	C277.979279,200.208221 280.814453,202.808228 283.379730,205.721832 
	C282.147766,206.223709 280.700653,206.074936 280.299225,206.652710 
	C276.544189,212.057495 270.122192,214.349884 266.438660,220.431763 
	C261.362427,228.813095 253.878799,235.764175 247.203812,243.126083 
	C245.863373,244.604446 243.526321,245.179184 241.364365,246.089157 
	C240.036957,245.071945 238.993942,244.136139 238.010986,242.816925 
	C238.771286,240.419312 238.973022,237.989746 240.250549,236.456543 
	C250.552734,224.092316 260.345154,211.226486 273.434448,201.477722 
	C274.418884,200.744537 274.593170,198.923538 275.144073,197.608215 
z"/>
<path fill="#D6C689" opacity="1.000000" stroke="none" 
	d="
M211.026566,221.896851 
	C212.286194,213.828659 220.353943,211.214310 224.383209,205.312592 
	C226.989243,201.495514 230.391479,198.194458 233.617584,194.835678 
	C237.195145,191.111023 240.609070,187.048782 244.800217,184.156525 
	C247.654633,182.186707 251.721664,181.974045 255.689728,180.957611 
	C256.778290,181.421875 257.423615,181.904190 257.699585,182.797058 
	C256.001556,186.889740 253.411453,189.418716 250.622513,192.176651 
	C241.699493,201.000504 233.458130,210.510040 224.733093,219.541809 
	C223.499619,220.818634 221.073456,221.060272 219.135086,221.493652 
	C218.035553,221.739471 216.805389,221.401047 215.338608,221.306732 
	C216.019699,223.379715 216.474335,224.763504 216.604523,226.052917 
	C214.528885,224.604645 212.777725,223.250748 211.026566,221.896851 
z"/>
<path fill="#98B2FE" opacity="1.000000" stroke="none" 
	d="
M220.007477,335.992676 
	C218.292496,335.997070 216.577499,336.001465 214.088760,335.950195 
	C205.876663,330.597290 198.438339,325.300018 190.708771,319.842041 
	C187.491394,316.586884 184.067520,313.820435 181.760056,310.318390 
	C178.586945,305.502625 174.679138,302.239563 169.078430,300.992401 
	C168.169098,297.911255 167.259766,294.830078 166.682953,291.455353 
	C170.491425,292.993896 174.068253,294.660278 177.418015,296.699646 
	C181.707275,299.310974 185.813660,302.222626 190.051315,305.347290 
	C195.158783,315.587372 204.661011,319.683411 214.005676,324.367828 
	C216.014877,328.486816 218.011185,332.239746 220.007477,335.992676 
z"/>
<path fill="#AFBDFB" opacity="1.000000" stroke="none" 
	d="
M199.000000,358.997559 
	C194.416306,359.312500 189.832611,359.627441 184.954559,360.292603 
	C181.778915,350.011536 178.897629,339.380249 176.365723,328.214172 
	C178.221497,327.961914 179.804733,328.037933 181.220093,328.564850 
	C185.845627,330.286896 190.410004,332.173218 195.049011,334.348083 
	C196.733597,337.133606 198.367096,339.567413 200.000397,342.454132 
	C199.666794,348.270538 199.333405,353.634064 199.000000,358.997559 
z"/>
<path fill="#93ABFE" opacity="1.000000" stroke="none" 
	d="
M330.966309,265.017578 
	C332.912628,268.130341 334.858948,271.243103 336.553772,274.865540 
	C333.775604,277.509430 331.028503,279.436676 328.780365,281.832214 
	C326.197479,284.584412 324.173859,287.852661 321.699799,290.717529 
	C315.995544,297.322754 310.241913,303.889679 304.331970,310.309845 
	C302.901123,311.864258 300.786346,312.789154 298.745453,313.784119 
	C297.061920,311.656311 295.618988,309.747955 294.121582,307.542206 
	C294.013123,306.843109 293.959137,306.441376 294.208252,305.878479 
	C298.527374,302.048462 302.887726,298.685120 306.478638,294.638916 
	C311.840424,288.597321 316.613495,282.036560 321.728333,275.771210 
	C324.715820,272.111694 327.881042,268.597260 330.966309,265.017578 
z"/>
<path fill="#8FA3FE" opacity="1.000000" stroke="none" 
	d="
M298.986053,314.003540 
	C300.786346,312.789154 302.901123,311.864258 304.331970,310.309845 
	C310.241913,303.889679 315.995544,297.322754 321.699799,290.717529 
	C324.173859,287.852661 326.197479,284.584412 328.780365,281.832214 
	C331.028503,279.436676 333.775604,277.509430 336.585205,275.212952 
	C338.378998,277.728668 339.889832,280.406677 341.471436,283.447357 
	C336.341583,288.731598 330.930023,293.451813 325.993042,298.624969 
	C319.621094,305.301727 313.661011,312.370087 307.440796,319.194427 
	C306.414062,320.320953 304.964020,321.061707 303.087524,321.772461 
	C301.305664,319.043945 300.145844,316.523743 298.986053,314.003540 
z"/>
<path fill="#AFA069" opacity="1.000000" stroke="none" 
	d="
M123.001251,216.001205 
	C125.013145,220.107727 129.073578,223.513275 127.355331,228.941620 
	C127.254593,229.259872 128.614731,230.113647 129.365799,230.611420 
	C130.518051,231.375031 132.812592,232.260361 132.721985,232.716751 
	C132.419571,234.240067 131.320755,235.626953 130.433243,237.005707 
	C129.689636,238.160873 128.814667,239.231461 127.964325,240.723328 
	C118.389534,231.868805 108.848289,222.630478 99.180145,212.669647 
	C99.737785,207.584045 101.591660,206.701599 105.077995,209.334244 
	C107.503014,211.165451 109.425995,212.416718 110.351288,208.049835 
	C114.802292,210.734283 118.901772,213.367752 123.001251,216.001205 
z"/>
<path fill="#BECED6" opacity="1.000000" stroke="none" 
	d="
M241.648773,246.170547 
	C243.526321,245.179184 245.863373,244.604446 247.203812,243.126083 
	C253.878799,235.764175 261.362427,228.813095 266.438660,220.431763 
	C270.122192,214.349884 276.544189,212.057495 280.299225,206.652710 
	C280.700653,206.074936 282.147766,206.223709 283.481506,206.035736 
	C285.943207,208.094009 288.033203,210.151978 289.858948,212.569061 
	C285.651062,214.908920 280.841034,216.055771 277.954681,219.054306 
	C272.873749,224.332718 268.989471,230.758530 264.550446,236.663513 
	C263.762848,237.711258 262.703644,238.552521 261.789246,239.507721 
	C259.863495,241.519440 256.980774,243.247070 256.252594,245.629715 
	C255.068192,249.505051 252.337341,251.313385 249.171753,253.235092 
	C246.463226,250.816757 244.056000,248.493652 241.648773,246.170547 
z"/>
<path fill="#C3CECA" opacity="1.000000" stroke="none" 
	d="
M337.006104,240.007324 
	C338.247650,239.259186 339.778687,238.763489 340.685577,237.723511 
	C349.035797,228.148026 360.816315,226.495255 372.202484,224.392120 
	C378.752380,223.182281 385.571106,223.428040 392.704041,223.029999 
	C390.653595,227.294174 388.167969,231.546906 385.175140,235.713806 
	C382.601379,234.707626 380.534821,233.787292 378.124634,232.713913 
	C376.573792,236.951736 374.271393,237.592758 370.818329,235.305115 
	C369.777496,234.615555 367.828033,234.814377 366.454529,235.190125 
	C358.755188,237.296371 350.216431,236.437836 343.839874,243.200500 
	C340.557800,246.681290 338.221222,245.198715 337.006104,240.007324 
z"/>
<path fill="#C4CCC3" opacity="1.000000" stroke="none" 
	d="
M336.602234,240.019882 
	C338.221222,245.198715 340.557800,246.681290 343.839874,243.200500 
	C350.216431,236.437836 358.755188,237.296371 366.454529,235.190125 
	C367.828033,234.814377 369.777496,234.615555 370.818329,235.305115 
	C374.271393,237.592758 376.573792,236.951736 378.124634,232.713913 
	C380.534821,233.787292 382.601379,234.707626 384.897583,235.913666 
	C384.935028,236.716049 384.742828,237.232742 384.068848,238.056900 
	C383.424652,238.713226 383.262207,239.062088 383.099792,239.410950 
	C382.525665,240.472687 381.951508,241.534424 380.843262,242.855103 
	C380.164551,243.590973 380.019958,244.067932 379.875366,244.544876 
	C379.875366,244.544876 379.875610,244.777832 379.394226,244.631226 
	C363.853851,240.621628 351.663513,247.927200 339.351105,254.697800 
	C339.052216,254.862152 339.076355,255.613922 338.949860,256.091705 
	C335.153839,251.242538 331.357788,246.393372 327.479858,241.227692 
	C330.331421,240.618286 333.264893,240.325363 336.602234,240.019882 
z"/>
<path fill="#A0BDFD" opacity="1.000000" stroke="none" 
	d="
M282.138428,289.976990 
	C282.973328,289.497406 284.012604,289.196198 284.611176,288.510376 
	C290.045837,282.283936 295.648590,276.181122 300.719543,269.666443 
	C306.589783,262.124908 311.972382,254.203903 317.821716,246.210892 
	C320.734161,249.746368 323.391602,253.518585 325.643616,257.701904 
	C319.137268,259.369019 316.356506,264.457153 312.724487,268.693329 
	C305.448853,277.179169 297.950165,285.475342 290.452545,293.767456 
	C289.524414,294.793915 288.041992,295.319183 286.550964,295.899414 
	C284.877136,294.089142 283.468719,292.456207 282.074951,290.611206 
	C282.089630,290.399200 282.138428,289.976959 282.138428,289.976990 
z"/>
<path fill="#B0CCED" opacity="1.000000" stroke="none" 
	d="
M403.063416,206.936188 
	C385.241577,207.326111 367.558411,207.664108 349.307190,207.711823 
	C348.494385,206.614105 348.249634,205.806671 348.357788,204.942703 
	C350.623566,203.928619 352.493011,202.869385 354.456360,202.029678 
	C369.274872,195.692032 384.527924,195.670227 399.997925,198.992065 
	C401.937164,199.579285 403.876373,200.166504 406.152374,200.956635 
	C406.124054,201.962158 405.758972,202.764801 404.940063,203.918121 
	C404.260498,204.508713 404.115723,204.790253 404.051880,205.113434 
	C404.051880,205.113434 404.031616,205.036545 403.824829,205.232819 
	C403.457611,205.817871 403.297180,206.206665 403.136749,206.595459 
	C403.136749,206.595459 403.202087,206.884277 403.063416,206.936188 
z"/>
<path fill="#D0CAA3" opacity="1.000000" stroke="none" 
	d="
M261.000610,185.212326 
	C263.933716,187.591522 266.866791,189.970734 269.576660,192.724548 
	C267.527161,195.092590 265.870789,197.283951 263.834167,199.032425 
	C260.891663,201.558594 257.053558,203.263214 254.685440,206.196594 
	C246.508224,216.325623 238.802505,226.835312 230.600311,237.089539 
	C228.461533,235.345581 226.639694,233.712158 225.171768,232.015717 
	C226.467484,230.494110 227.567657,229.109802 228.298187,227.552155 
	C228.829407,226.419434 228.465759,224.710037 229.198074,223.853867 
	C234.341919,217.839767 239.557022,211.877609 244.967896,206.103668 
	C249.461792,201.308258 254.466812,196.979233 258.795074,192.048309 
	C260.244720,190.396805 260.305176,187.525864 261.000610,185.212326 
z"/>
<path fill="#CBCBB2" opacity="1.000000" stroke="none" 
	d="
M230.917252,237.200058 
	C238.802505,226.835312 246.508224,216.325623 254.685440,206.196594 
	C257.053558,203.263214 260.891663,201.558594 263.834167,199.032425 
	C265.870789,197.283951 267.527161,195.092590 269.706085,193.035400 
	C271.672577,194.323593 273.286407,195.675537 275.022156,197.317841 
	C274.593170,198.923538 274.418884,200.744537 273.434448,201.477722 
	C260.345154,211.226486 250.552734,224.092316 240.250549,236.456543 
	C238.973022,237.989746 238.771286,240.419312 237.702209,242.711609 
	C236.260361,242.259064 235.187378,241.528412 233.941132,240.550323 
	C232.817642,239.268616 231.867447,238.234344 230.917252,237.200058 
z"/>
<path fill="#CBCBB2" opacity="1.000000" stroke="none" 
	d="
M339.017120,256.424133 
	C339.076355,255.613922 339.052216,254.862152 339.351105,254.697800 
	C351.663513,247.927200 363.853851,240.621628 379.300842,244.700897 
	C379.044586,246.184128 378.400238,247.451065 377.159424,249.031296 
	C376.083496,250.375961 375.604065,251.407349 375.124634,252.438721 
	C374.570007,253.501511 374.015411,254.564316 372.862305,255.788544 
	C369.736023,253.844955 367.224976,252.916138 364.186615,255.262070 
	C363.264832,255.973785 361.518768,255.514404 360.371094,256.057800 
	C357.641602,257.350220 354.942902,258.767975 352.425720,260.429047 
	C350.464874,261.723022 348.796356,263.459930 346.651428,265.024841 
	C346.076263,265.086243 345.847565,265.122864 345.618896,265.159454 
	C343.440704,262.358490 341.262543,259.557526 339.017120,256.424133 
z"/>
<path fill="#D3C998" opacity="1.000000" stroke="none" 
	d="
M260.736267,185.045288 
	C260.305176,187.525864 260.244720,190.396805 258.795074,192.048309 
	C254.466812,196.979233 249.461792,201.308258 244.967896,206.103668 
	C239.557022,211.877609 234.341919,217.839767 229.198074,223.853867 
	C228.465759,224.710037 228.829407,226.419434 228.298187,227.552155 
	C227.567657,229.109802 226.467484,230.494110 224.851471,231.937256 
	C221.785660,230.280273 219.394089,228.638733 216.982712,226.784821 
	C216.962906,226.572479 216.929001,226.147278 216.928986,226.147278 
	C216.474335,224.763504 216.019699,223.379715 215.338608,221.306732 
	C216.805389,221.401047 218.035553,221.739471 219.135086,221.493652 
	C221.073456,221.060272 223.499619,220.818634 224.733093,219.541809 
	C233.458130,210.510040 241.699493,201.000504 250.622513,192.176651 
	C253.411453,189.418716 256.001556,186.889740 257.683899,183.105316 
	C258.848999,183.628082 259.660431,184.253159 260.736267,185.045288 
z"/>
<path fill="#A99A66" opacity="1.000000" stroke="none" 
	d="
M109.999756,207.998840 
	C109.425995,212.416718 107.503014,211.165451 105.077995,209.334244 
	C101.591660,206.701599 99.737785,207.584045 99.068016,212.344452 
	C93.070137,204.793854 87.057487,196.845963 80.968910,188.570282 
	C81.101234,186.983032 81.309486,185.723541 81.514214,184.485367 
	C87.648087,185.692322 93.433365,186.830704 99.751274,188.288544 
	C102.189476,191.071884 104.095047,193.535782 105.834213,196.300354 
	C102.364059,199.221039 106.319252,201.513931 106.063354,204.306732 
	C106.750702,205.075836 107.375900,205.537613 108.227158,206.172394 
	C108.968742,206.896545 109.484245,207.447693 109.999756,207.998840 
z"/>
<path fill="#A8C2E3" opacity="1.000000" stroke="none" 
	d="
M348.004883,204.999237 
	C348.249634,205.806671 348.494385,206.614105 348.871307,207.712677 
	C344.944641,211.894531 340.696106,215.612564 336.920502,219.761032 
	C335.411896,221.418625 334.946533,224.025665 334.012878,226.596802 
	C331.674011,230.608521 329.328583,234.223938 326.441589,237.705795 
	C325.366302,237.355789 324.832642,237.139328 324.298950,236.922867 
	C322.595520,234.832443 320.892059,232.742020 319.258087,229.996338 
	C320.186584,227.640167 320.708862,224.840851 321.970795,224.453934 
	C325.162598,223.475266 325.012756,221.428329 325.107117,218.766571 
	C329.186707,213.645691 333.093445,208.825165 337.359467,204.056686 
	C341.147430,204.405579 344.576172,204.702408 348.004883,204.999237 
z"/>
<path fill="#8A73FC" opacity="1.000000" stroke="none" 
	d="
M321.526245,371.353973 
	C320.776733,362.335480 320.319489,353.260437 320.052002,344.179749 
	C319.989929,342.073029 320.574860,339.947296 320.932312,337.419434 
	C325.508698,338.483307 330.014801,339.958069 334.695068,342.109131 
	C334.900452,349.467010 334.931671,356.148529 334.962860,362.830078 
	C330.604431,365.651825 326.246033,368.473602 321.526245,371.353973 
z"/>
<path fill="#A0BDFD" opacity="1.000000" stroke="none" 
	d="
M194.997910,333.996338 
	C190.410004,332.173218 185.845627,330.286896 181.220093,328.564850 
	C179.804733,328.037933 178.221497,327.961914 176.401062,327.818848 
	C173.731232,319.236084 171.375458,310.513916 169.049072,301.392059 
	C174.679138,302.239563 178.586945,305.502625 181.760056,310.318390 
	C184.067520,313.820435 187.491394,316.586884 190.708755,320.270325 
	C192.332626,325.238373 193.665268,329.617340 194.997910,333.996338 
z"/>
<path fill="#B0CCED" opacity="1.000000" stroke="none" 
	d="
M297.898285,220.687683 
	C290.369476,225.321625 283.372467,229.915588 278.839508,238.139786 
	C276.105988,243.099258 270.892639,246.828110 266.394165,250.638321 
	C262.317169,254.091599 260.193542,258.187286 259.654205,263.642273 
	C258.349274,263.175415 257.329895,262.468933 256.227142,261.546387 
	C256.143738,261.330292 255.985275,260.894989 255.870972,260.721191 
	C255.578842,260.328583 255.362747,260.158234 255.052734,259.818298 
	C254.997070,259.600189 254.920151,259.156647 254.949097,258.777954 
	C258.661774,253.239807 262.053619,247.836990 266.101776,242.981277 
	C271.384491,236.644714 277.267792,230.812866 282.734161,224.623825 
	C285.789032,221.165100 291.145355,219.411774 291.140015,213.610123 
	C293.362885,215.861465 295.585724,218.112808 297.898285,220.687683 
z"/>
<path fill="#98B2FE" opacity="1.000000" stroke="none" 
	d="
M330.947571,264.718842 
	C327.881042,268.597260 324.715820,272.111694 321.728333,275.771210 
	C316.613495,282.036560 311.840424,288.597321 306.478638,294.638916 
	C302.887726,298.685120 298.527374,302.048462 293.970337,305.744568 
	C292.970673,305.471893 292.511963,305.171967 292.015076,304.612610 
	C291.920013,304.010803 291.863098,303.668427 291.858154,302.942200 
	C292.764862,300.783264 293.342773,298.790375 294.532166,297.278564 
	C296.991211,294.152954 299.668976,291.179382 302.446381,288.327942 
	C311.216980,279.323517 320.075073,270.404266 328.899323,261.452087 
	C328.899323,261.452087 328.928162,261.526642 329.021790,261.833649 
	C329.366058,262.433319 329.616730,262.725983 329.867401,263.018646 
	C330.221191,263.485809 330.574982,263.952972 330.947571,264.718842 
z"/>
<path fill="#B4CBE0" opacity="1.000000" stroke="none" 
	d="
M291.117889,213.402359 
	C291.145355,219.411774 285.789032,221.165100 282.734161,224.623825 
	C277.267792,230.812866 271.384491,236.644714 266.101776,242.981277 
	C262.053619,247.836990 258.661774,253.239807 254.663910,258.601562 
	C252.724197,256.979340 251.098633,255.154846 249.473068,253.330322 
	C252.337341,251.313385 255.068192,249.505051 256.252594,245.629715 
	C256.980774,243.247070 259.863495,241.519440 261.789246,239.507721 
	C262.703644,238.552521 263.762848,237.711258 264.550446,236.663513 
	C268.989471,230.758530 272.873749,224.332718 277.954681,219.054306 
	C280.841034,216.055771 285.651062,214.908920 289.990723,212.885040 
	C290.703094,212.798615 290.939453,212.916183 291.117889,213.402359 
z"/>
<path fill="#628FEA" opacity="1.000000" stroke="none" 
	d="
M295.659424,156.175659 
	C298.294250,164.598206 295.726074,172.426163 292.898071,180.917099 
	C290.730621,183.412735 288.784058,185.240677 286.837494,187.068634 
	C284.626434,184.571655 282.415405,182.074677 280.135986,178.877533 
	C280.329285,177.239548 280.294159,175.988358 280.900299,175.414276 
	C285.177185,171.363724 284.328400,166.654861 282.906860,161.821075 
	C287.035980,159.935791 291.165070,158.050522 295.659424,156.175659 
z"/>
<path fill="#97B9FC" opacity="1.000000" stroke="none" 
	d="
M328.816528,261.124146 
	C320.075073,270.404266 311.216980,279.323517 302.446381,288.327942 
	C299.668976,291.179382 296.991211,294.152954 294.532166,297.278564 
	C293.342773,298.790375 292.764862,300.783264 291.616211,302.698425 
	C289.820343,300.584534 288.318359,298.330627 286.816406,296.076691 
	C288.041992,295.319183 289.524414,294.793915 290.452545,293.767456 
	C297.950165,285.475342 305.448853,277.179169 312.724487,268.693329 
	C316.356506,264.457153 319.137268,259.369019 325.591248,258.059387 
	C326.874146,258.935913 327.803955,259.866058 328.816528,261.124146 
z"/>
<path fill="#88ACFD" opacity="1.000000" stroke="none" 
	d="
M189.998856,305.004883 
	C185.813660,302.222626 181.707275,299.310974 177.418015,296.699646 
	C174.068253,294.660278 170.491425,292.993896 166.685791,291.084839 
	C165.767303,288.981323 165.178513,286.954773 164.900024,284.405151 
	C167.470856,283.915161 169.731384,283.948151 172.049805,284.328827 
	C172.567474,285.334991 172.888763,286.193420 173.507675,286.622284 
	C184.313232,294.109955 195.155273,301.545013 205.989792,309.245789 
	C205.990067,309.669556 205.989914,309.839050 205.591858,310.004028 
	C200.128906,308.334656 195.063889,306.669769 189.998856,305.004883 
z"/>
<path fill="#88A7D7" opacity="1.000000" stroke="none" 
	d="
M310.998047,196.045502 
	C311.309479,195.559433 311.620880,195.073349 311.965942,194.291809 
	C313.067474,194.002029 314.135376,194.007721 315.603912,194.007645 
	C317.555695,196.474548 319.106842,198.947235 320.762604,202.082550 
	C319.576843,207.863602 318.286438,212.982025 316.825256,218.385223 
	C315.143799,219.435654 313.633118,220.201324 312.122437,220.966980 
	C312.122437,220.966965 311.844574,220.842102 311.845764,220.327820 
	C311.220428,219.208710 310.593872,218.603851 309.967346,217.999008 
	C307.702301,215.213882 305.437256,212.428757 303.455933,209.307190 
	C305.209137,207.644104 307.205566,206.580826 308.029907,204.931656 
	C309.412354,202.166077 310.048126,199.027267 310.998047,196.045502 
z"/>
<path fill="#D0CAA3" opacity="1.000000" stroke="none" 
	d="
M346.997894,265.000000 
	C348.796356,263.459930 350.464874,261.723022 352.425720,260.429047 
	C354.942902,258.767975 357.641602,257.350220 360.371094,256.057800 
	C361.518768,255.514404 363.264832,255.973785 364.186615,255.262070 
	C367.224976,252.916138 369.736023,253.844955 372.615875,255.964905 
	C372.177063,257.544434 371.386169,259.108978 370.091980,260.988068 
	C369.415009,261.605499 369.241302,261.908417 369.067627,262.211365 
	C369.107483,262.521271 369.005219,262.773529 368.286713,263.161133 
	C367.612152,263.691345 367.411713,264.028625 367.211243,264.365875 
	C367.211243,264.365875 367.204498,264.183289 367.003448,264.280609 
	C366.512909,264.879822 366.223419,265.381714 365.933929,265.883606 
	C365.933929,265.883606 365.967194,265.956268 365.587280,266.017029 
	C364.231262,267.492035 363.255219,268.906311 362.279175,270.320587 
	C362.279144,270.320587 362.143616,270.131561 361.873749,270.075745 
	C359.033997,267.191620 356.694427,265.340240 354.675995,270.649261 
	C354.354095,271.495880 352.169891,271.634460 350.846649,272.100372 
	C349.591095,270.634552 348.335541,269.168732 347.033081,267.040985 
	C346.990112,265.919373 346.994019,265.459686 346.997894,265.000000 
z"/>
<path fill="#7F69FF" opacity="1.000000" stroke="none" 
	d="
M335.288330,362.759399 
	C334.931671,356.148529 334.900452,349.467010 334.940918,342.368042 
	C340.324005,341.959015 345.635406,341.967407 351.405823,341.973297 
	C348.972321,350.856995 342.916656,357.262024 335.288330,362.759399 
z"/>
<path fill="#6A92E0" opacity="1.000000" stroke="none" 
	d="
M286.882172,187.425034 
	C288.784058,185.240677 290.730621,183.412735 292.837952,181.291168 
	C294.000092,182.105637 295.001373,183.213730 295.970459,184.286148 
	C297.394714,184.112671 298.898346,183.929520 300.702209,183.870804 
	C300.999664,187.025818 300.996887,190.056381 300.696289,193.703308 
	C298.526764,195.569214 296.655060,196.818756 294.783325,198.068283 
	C292.164490,194.639328 289.545685,191.210388 286.882172,187.425034 
z"/>
<path fill="#7CA1DF" opacity="1.000000" stroke="none" 
	d="
M171.991913,283.981140 
	C169.731384,283.948151 167.470856,283.915161 164.838348,284.012878 
	C163.361221,280.003906 162.256058,275.864258 161.425323,271.103455 
	C163.226593,270.351257 165.020432,269.650116 166.222260,270.212982 
	C168.423004,271.243713 170.229782,273.086884 172.284195,274.467285 
	C174.129791,275.707336 176.087204,276.780945 177.993195,278.313110 
	C177.986465,279.464203 177.981827,280.230103 177.607468,280.996216 
	C175.489136,281.991302 173.740524,282.986206 171.991913,283.981140 
z"/>
<path fill="#7CA1DF" opacity="1.000000" stroke="none" 
	d="
M294.894287,198.397171 
	C296.655060,196.818756 298.526764,195.569214 300.692383,194.157135 
	C304.064056,194.625412 307.141907,195.256226 310.608887,195.966278 
	C310.048126,199.027267 309.412354,202.166077 308.029907,204.931656 
	C307.205566,206.580826 305.209137,207.644104 303.364319,208.979782 
	C300.327728,205.567886 297.666504,202.146973 294.894287,198.397171 
z"/>
<path fill="#7597D7" opacity="1.000000" stroke="none" 
	d="
M177.995285,277.927979 
	C176.087204,276.780945 174.129791,275.707336 172.284195,274.467285 
	C170.229782,273.086884 168.423004,271.243713 166.222260,270.212982 
	C165.020432,269.650116 163.226593,270.351257 161.453766,270.715118 
	C160.628952,268.586548 160.050140,266.225250 159.497070,263.509399 
	C163.093536,264.462616 166.664276,265.770355 170.849518,267.338440 
	C177.007675,269.815521 182.551315,272.032257 188.315994,274.383606 
	C189.040680,275.010681 189.544327,275.503174 189.655685,276.000305 
	C184.926483,273.242371 181.807510,277.616211 177.995285,277.927979 
z"/>
<path fill="#638BD9" opacity="1.000000" stroke="none" 
	d="
M282.531769,161.840790 
	C284.328400,166.654861 285.177185,171.363724 280.900299,175.414276 
	C280.294159,175.988358 280.329285,177.239548 280.050323,178.549469 
	C279.433228,178.376633 278.716614,177.916382 278.250977,177.274170 
	C269.794312,165.610489 268.679840,167.654587 282.531769,161.840790 
z"/>
<path fill="#91A7C3" opacity="1.000000" stroke="none" 
	d="
M312.181702,221.300873 
	C313.633118,220.201324 315.143799,219.435654 317.225372,218.377533 
	C320.175629,218.412354 322.554962,218.739655 324.934296,219.066940 
	C325.012756,221.428329 325.162598,223.475266 321.970795,224.453934 
	C320.708862,224.840851 320.186584,227.640167 319.159546,229.673035 
	C316.741364,227.214920 314.491180,224.424835 312.181702,221.300873 
z"/>
<path fill="#D6C689" opacity="1.000000" stroke="none" 
	d="
M350.950073,272.431946 
	C352.169891,271.634460 354.354095,271.495880 354.675995,270.649261 
	C356.694427,265.340240 359.033997,267.191620 361.961731,270.151764 
	C361.914948,270.990387 361.548096,271.722137 361.099792,272.399994 
	C356.284424,279.680542 356.280914,279.678223 350.950073,272.431946 
z"/>
<path fill="#D6C689" opacity="1.000000" stroke="none" 
	d="
M362.561707,270.168213 
	C363.255219,268.906311 364.231262,267.492035 365.548218,266.008484 
	C364.874146,267.298096 363.859161,268.656982 362.561707,270.168213 
z"/>
<path fill="#AFA069" opacity="1.000000" stroke="none" 
	d="
M128.032623,241.367493 
	C129.220200,241.863556 130.542389,242.657288 131.898087,243.817841 
	C130.676804,243.344833 129.422012,242.505005 128.032623,241.367493 
z"/>
<path fill="#6E9CF8" opacity="1.000000" stroke="none" 
	d="
M322.690918,144.375885 
	C322.097260,144.894989 321.183746,145.412598 319.914917,145.883377 
	C320.496765,145.349152 321.433929,144.861771 322.690918,144.375885 
z"/>
<path fill="#EFB686" opacity="1.000000" stroke="none" 
	d="
M161.408615,127.567657 
	C160.507675,127.509506 159.379623,127.190964 158.125015,126.525536 
	C159.059479,126.554855 160.120483,126.931061 161.408615,127.567657 
z"/>
<path fill="#91A7C3" opacity="1.000000" stroke="none" 
	d="
M310.040497,218.316864 
	C310.593872,218.603851 311.220428,219.208710 311.855896,220.175873 
	C311.281128,219.903687 310.697388,219.269196 310.040497,218.316864 
z"/>
<path fill="#D0CAA3" opacity="1.000000" stroke="none" 
	d="
M375.402405,252.239410 
	C375.604065,251.407349 376.083496,250.375961 376.894836,249.202209 
	C376.711212,250.053253 376.195709,251.046677 375.402405,252.239410 
z"/>
<path fill="#91A7C3" opacity="1.000000" stroke="none" 
	d="
M324.344604,237.200287 
	C324.832642,237.139328 325.366302,237.355789 326.120850,237.777206 
	C326.283081,238.155136 326.224487,238.328110 326.050568,238.749039 
	C325.420227,238.490585 324.905243,237.984146 324.344604,237.200287 
z"/>
<path fill="#CBCBB2" opacity="1.000000" stroke="none" 
	d="
M380.100861,244.425659 
	C380.019958,244.067932 380.164551,243.590973 380.591248,243.028870 
	C380.690979,243.397949 380.508667,243.852188 380.100861,244.425659 
z"/>
<path fill="#D6C689" opacity="1.000000" stroke="none" 
	d="
M366.204163,265.773926 
	C366.223419,265.381714 366.512909,264.879822 367.093689,264.294891 
	C367.081451,264.695984 366.777924,265.180084 366.204163,265.773926 
z"/>
<path fill="#D6C689" opacity="1.000000" stroke="none" 
	d="
M346.651428,265.024841 
	C346.994019,265.459686 346.990112,265.919373 346.963562,266.722046 
	C346.540253,266.630524 346.139587,266.196014 345.678925,265.460480 
	C345.847565,265.122864 346.076263,265.086243 346.651428,265.024841 
z"/>
<path fill="#F5B289" opacity="1.000000" stroke="none" 
	d="
M134.167191,117.688812 
	C133.997177,117.903046 133.707870,117.833984 133.257019,117.554230 
	C133.407013,117.253151 133.724487,117.273819 134.167191,117.688812 
z"/>
<path fill="#D6C689" opacity="1.000000" stroke="none" 
	d="
M367.495178,264.256470 
	C367.411713,264.028625 367.612152,263.691345 368.085938,263.229492 
	C368.165894,263.452332 367.972504,263.799683 367.495178,264.256470 
z"/>
<path fill="#93ABFE" opacity="1.000000" stroke="none" 
	d="
M329.832428,262.711365 
	C329.616730,262.725983 329.366058,262.433319 328.999695,261.867004 
	C329.188507,261.863617 329.492981,262.133850 329.832428,262.711365 
z"/>
<path fill="#D6C689" opacity="1.000000" stroke="none" 
	d="
M369.324707,262.101868 
	C369.241302,261.908417 369.415009,261.605499 369.808807,261.154846 
	C369.879883,261.335510 369.730835,261.663940 369.324707,262.101868 
z"/>
<path fill="#A0BDFD" opacity="1.000000" stroke="none" 
	d="
M316.745239,243.788757 
	C316.506042,243.862885 316.314240,243.653625 316.094299,243.198486 
	C316.359894,243.048828 316.602020,243.233078 316.745239,243.788757 
z"/>
<path fill="#CBCBB2" opacity="1.000000" stroke="none" 
	d="
M383.365906,239.263901 
	C383.262207,239.062088 383.424652,238.713226 383.816223,238.184265 
	C383.907623,238.375076 383.769836,238.745956 383.365906,239.263901 
z"/>
<path fill="#A6C3FE" opacity="1.000000" stroke="none" 
	d="
M308.971130,233.725128 
	C308.716675,233.887665 308.467560,233.714645 308.140045,233.282349 
	C308.320496,233.211624 308.625427,233.333771 308.971130,233.725128 
z"/>
<path fill="#B0CCED" opacity="1.000000" stroke="none" 
	d="
M301.210266,224.592590 
	C300.991058,224.636917 300.668610,224.381622 300.232483,223.833176 
	C300.448181,223.791016 300.777618,224.041992 301.210266,224.592590 
z"/>
<path fill="#B4CBE0" opacity="1.000000" stroke="none" 
	d="
M403.412872,206.417175 
	C403.297180,206.206665 403.457611,205.817871 403.863953,205.225616 
	C403.969543,205.427719 403.829285,205.833298 403.412872,206.417175 
z"/>
<path fill="#B4CBE0" opacity="1.000000" stroke="none" 
	d="
M404.298523,205.022186 
	C404.115723,204.790253 404.260498,204.508713 404.673523,204.119110 
	C404.755615,204.289917 404.650391,204.610443 404.298523,205.022186 
z"/>
<path fill="#A0C3FD" opacity="1.000000" stroke="none" 
	d="
M418.266418,181.842484 
	C418.126221,181.587784 418.273163,181.380371 418.622864,181.095306 
	C418.883301,181.336227 418.792603,181.626938 418.266418,181.842484 
z"/>
<path fill="#6E9CF8" opacity="1.000000" stroke="none" 
	d="
M328.652161,141.910889 
	C328.633728,142.143173 328.274323,142.405167 327.573669,142.695938 
	C327.592010,142.463348 327.951599,142.201981 328.652161,141.910889 
z"/>
<path fill="#97B9FC" opacity="1.000000" stroke="none" 
	d="
M439.287048,147.009216 
	C439.115173,146.704269 439.288116,146.453812 439.715485,146.119415 
	C439.794037,146.334564 439.681366,146.677322 439.287048,147.009216 
z"/>
<path fill="#A8C8F2" opacity="1.000000" stroke="none" 
	d="
M348.357758,204.942703 
	C344.576172,204.702408 341.147430,204.405579 337.359589,203.720367 
	C337.000702,202.883530 337.000946,202.435043 337.001221,201.986572 
	C339.224915,200.183426 341.448578,198.380295 343.836121,196.280746 
	C346.408661,195.323486 348.817352,194.662659 351.614838,193.997864 
	C360.419983,193.329407 368.924957,191.611237 377.226624,192.309601 
	C384.867065,192.952362 392.288910,196.194061 399.902466,198.641464 
	C384.527924,195.670227 369.274872,195.692032 354.456360,202.029678 
	C352.493011,202.869385 350.623566,203.928619 348.357758,204.942703 
z"/>
<path fill="#9BBAE5" opacity="1.000000" stroke="none" 
	d="
M336.537903,201.987656 
	C337.000946,202.435043 337.000702,202.883530 337.000336,203.668320 
	C333.093445,208.825165 329.186707,213.645691 325.107117,218.766571 
	C322.554962,218.739655 320.175629,218.412354 317.396179,218.092743 
	C318.286438,212.982025 319.576843,207.863602 320.924713,202.376556 
	C321.737396,201.999741 322.492615,201.991562 323.625122,201.973389 
	C328.026489,201.971832 332.050568,201.980286 336.537903,201.987656 
z"/>
<path fill="#918C71" opacity="1.000000" stroke="none" 
	d="
M101.010887,179.993256 
	C100.847229,176.385071 101.826286,174.569000 106.131348,175.355667 
	C108.110756,175.717361 110.443947,174.142975 112.849854,173.169189 
	C113.525177,172.980408 113.967354,173.068970 114.869713,173.388123 
	C115.535637,173.795242 115.769073,173.919983 116.030212,173.992920 
	C121.753448,175.979874 127.476685,177.966812 133.694580,180.144165 
	C134.382645,180.539581 134.619858,180.651962 134.900894,180.671738 
	C135.357193,180.784485 135.813477,180.897232 136.618118,181.064590 
	C147.413300,186.022247 157.860138,190.925278 168.642578,195.955353 
	C175.053955,199.421356 181.129730,202.760284 187.549591,206.229279 
	C191.799911,209.059341 195.706116,211.759354 199.478851,214.776855 
	C195.440033,218.961319 192.566101,216.874451 190.053955,212.795883 
	C188.697205,214.469452 187.721344,215.673172 186.745499,216.876892 
	C186.582565,216.394424 186.419617,215.911942 186.256668,215.429474 
	C183.835541,215.952103 181.414413,216.474747 178.639435,216.944855 
	C175.435425,215.319260 172.649307,213.613068 169.720261,212.203903 
	C165.197800,210.028168 160.577545,208.055664 155.767456,205.737015 
	C149.663895,201.861710 144.050766,197.703476 137.862640,194.749863 
	C126.760117,189.450592 115.311996,184.875366 103.633484,179.996002 
	C102.509415,179.994049 101.760155,179.993652 101.010887,179.993256 
z"/>
<path fill="#E9BA83" opacity="1.000000" stroke="none" 
	d="
M134.768494,180.527344 
	C134.619858,180.651962 134.382645,180.539581 134.065552,180.173462 
	C134.200058,180.085785 134.431473,180.209335 134.768494,180.527344 
z"/>
<path fill="#A09363" opacity="1.000000" stroke="none" 
	d="
M115.909874,173.826141 
	C115.769073,173.919983 115.535637,173.795242 115.197334,173.474731 
	C115.354485,173.334045 115.596069,173.443588 115.909874,173.826141 
z"/>
<path fill="#8A8D81" opacity="1.000000" stroke="none" 
	d="
M178.993286,216.997375 
	C181.414413,216.474747 183.835541,215.952103 186.256668,215.429474 
	C186.419617,215.911942 186.582565,216.394424 186.745499,216.876892 
	C187.721344,215.673172 188.697205,214.469452 190.053955,212.795883 
	C192.566101,216.874451 195.440033,218.961319 199.689636,215.040527 
	C203.490417,217.205307 206.946960,219.423904 210.715042,221.769684 
	C212.777725,223.250748 214.528885,224.604645 216.604523,226.052917 
	C216.929001,226.147278 216.962906,226.572479 216.924896,227.130325 
	C215.083466,230.025192 213.566803,232.144379 209.720184,231.334335 
	C205.957672,230.541992 201.919373,231.059357 197.601639,231.001526 
	C196.133286,230.999390 195.065430,230.997559 193.946228,230.654449 
	C189.672165,225.041458 186.260071,218.862534 178.993286,216.997375 
z"/>
<path fill="#7691BE" opacity="1.000000" stroke="none" 
	d="
M256.310547,261.762451 
	C257.329895,262.468933 258.349274,263.175415 259.627625,264.062134 
	C261.734039,266.705688 263.581451,269.168945 265.651794,272.196472 
	C264.250977,275.841705 262.627197,278.922699 260.623901,281.990662 
	C257.826935,281.329803 255.409500,280.682007 252.547638,280.029297 
	C248.080719,279.353912 244.058243,278.683411 239.753967,277.856384 
	C238.313171,276.454559 237.154190,275.209259 236.152618,273.684540 
	C237.536880,271.920105 238.763733,270.435028 240.363480,268.974304 
	C242.742340,269.476135 245.226715,270.938507 246.662003,270.241272 
	C250.530136,268.362244 255.354507,267.109680 256.310547,261.762451 
z"/>
<path fill="#6C8ECB" opacity="1.000000" stroke="none" 
	d="
M261.003418,282.003662 
	C262.627197,278.922699 264.250977,275.841705 265.928223,272.386230 
	C267.571686,273.497864 269.161713,274.983978 270.971558,276.722229 
	C274.696655,281.133911 278.201965,285.293488 281.922852,289.715027 
	C282.138428,289.976959 282.089630,290.399200 281.989380,290.961853 
	C279.593170,293.019623 277.297211,294.514709 274.633850,295.996063 
	C272.844330,295.653778 271.422180,295.325195 269.946899,294.651794 
	C266.930328,290.205902 263.966858,286.104797 261.003418,282.003662 
z"/>
<path fill="#B1B8FF" opacity="1.000000" stroke="none" 
	d="
M199.312744,359.145020 
	C199.333405,353.634064 199.666794,348.270538 200.356934,342.506104 
	C207.141037,345.404449 213.568375,348.703735 219.995728,352.003052 
	C221.624496,357.083038 223.253281,362.162994 224.941940,367.621582 
	C222.898605,368.967224 220.795395,369.934265 218.345276,370.951294 
	C214.500595,368.759399 211.006577,366.511627 207.503754,364.277679 
	C204.883575,362.606720 202.251999,360.953583 199.312744,359.145020 
z"/>
<path fill="#A5B4FF" opacity="1.000000" stroke="none" 
	d="
M220.332336,352.002075 
	C213.568375,348.703735 207.141037,345.404449 200.357147,342.053162 
	C198.367096,339.567413 196.733597,337.133606 195.049011,334.348083 
	C193.665268,329.617340 192.332626,325.238373 191.000000,320.431061 
	C198.438339,325.300018 205.876663,330.597290 213.660248,335.950073 
	C216.665344,341.091644 219.325180,346.177765 222.000443,351.631348 
	C221.566895,351.999573 221.117905,352.000366 220.332336,352.002075 
z"/>
<path fill="#8FA3FE" opacity="1.000000" stroke="none" 
	d="
M220.351532,336.048767 
	C218.011185,332.239746 216.014877,328.486816 214.392349,324.369141 
	C216.510757,324.335693 218.255386,324.666962 220.345673,325.051453 
	C223.798721,326.737305 226.906082,328.369934 230.013428,330.002563 
	C233.249969,334.464142 236.486511,338.925751 239.872528,343.692444 
	C237.975342,343.998535 235.928696,343.999512 233.444672,344.004517 
	C228.903412,341.373993 224.799500,338.739441 220.351532,336.048767 
z"/>
<path fill="#A2986E" opacity="1.000000" stroke="none" 
	d="
M100.702438,180.186188 
	C101.760155,179.993652 102.509415,179.994049 103.704865,180.328888 
	C105.824242,181.971970 107.512733,183.261597 109.168114,184.592422 
	C118.450691,192.054901 127.725288,199.527313 136.857910,207.268768 
	C135.810837,208.360870 134.908463,209.180542 133.645203,209.946686 
	C130.885635,208.782928 128.442383,207.758911 126.096771,206.546127 
	C119.376854,203.071640 112.696510,199.520615 106.000610,195.999680 
	C104.095047,193.535782 102.189476,191.071884 100.141083,188.303391 
	C100.130157,185.458893 100.262077,182.919006 100.702438,180.186188 
z"/>
<path fill="#9380FD" opacity="1.000000" stroke="none" 
	d="
M300.012299,373.013580 
	C296.898743,379.621582 293.377808,380.737091 288.807648,376.233887 
	C280.221222,367.773285 271.805939,359.139038 263.104614,349.927429 
	C261.478027,346.904510 260.120453,344.496613 258.636993,342.169006 
	C257.506409,340.395111 256.216156,338.722992 255.371429,337.063293 
	C258.494629,337.754089 261.243317,338.387177 264.156128,339.310364 
	C266.389740,341.508240 268.525269,343.349854 270.516998,345.335602 
	C277.665100,352.462189 284.685699,359.718811 291.926514,366.749084 
	C294.357513,369.109406 297.302338,370.940552 300.012299,373.013580 
z"/>
<path fill="#8792FD" opacity="1.000000" stroke="none" 
	d="
M254.996948,337.005585 
	C256.216156,338.722992 257.506409,340.395111 258.636993,342.169006 
	C260.120453,344.496613 261.478027,346.904510 262.944275,349.635254 
	C258.534088,347.362793 253.832581,345.056244 249.673004,342.009796 
	C245.715820,339.111542 242.324783,335.440277 238.290527,331.711395 
	C231.743896,320.999664 221.043884,315.963135 211.949127,308.661072 
	C210.783600,306.900177 209.730789,305.428009 208.545334,304.071869 
	C206.742599,302.009491 204.847916,300.027527 203.376007,298.070496 
	C207.843613,299.421875 211.927490,300.714142 216.301880,302.164856 
	C222.730896,307.548309 228.869400,312.773285 235.055908,318.350769 
	C239.342773,327.404053 248.217575,331.066040 254.996948,337.005585 
z"/>
<path fill="#8A73FC" opacity="1.000000" stroke="none" 
	d="
M300.291321,372.856171 
	C297.302338,370.940552 294.357513,369.109406 291.926514,366.749084 
	C284.685699,359.718811 277.665100,352.462189 270.516998,345.335602 
	C268.525269,343.349854 266.389740,341.508240 264.044189,339.052338 
	C263.518799,338.001556 263.269440,337.498932 263.391235,337.007263 
	C269.014587,340.018158 274.702820,342.462250 279.410828,346.155823 
	C285.601044,351.012238 290.899170,356.989716 296.838226,362.191315 
	C298.821045,363.927948 301.594940,364.761353 304.007233,366.007629 
	C304.003845,366.754059 304.000427,367.500458 303.995148,368.619934 
	C302.852264,370.228241 301.711304,371.463501 300.291321,372.856171 
z"/>
<path fill="#8A9BFE" opacity="1.000000" stroke="none" 
	d="
M212.002441,309.001770 
	C221.043884,315.963135 231.743896,320.999664 237.950867,331.658173 
	C235.598862,331.338776 233.192215,330.675110 230.399490,330.007019 
	C226.906082,328.369934 223.798721,326.737305 220.292709,324.710052 
	C218.750824,322.971039 217.688904,321.545929 216.448807,320.297791 
	C213.002075,316.828674 209.481293,313.433167 205.989761,310.008545 
	C205.989914,309.839050 205.990067,309.669556 206.419601,309.247375 
	C208.566803,308.997101 210.284622,308.999420 212.002441,309.001770 
z"/>
<path fill="#6158E5" opacity="1.000000" stroke="none" 
	d="
M306.707886,330.763489 
	C307.609985,336.031586 308.299957,341.062347 308.646729,346.487732 
	C298.531128,339.905304 288.758667,332.928223 278.934143,325.615143 
	C275.429108,322.091217 271.915588,318.965820 268.541626,315.696350 
	C265.685699,312.928925 261.815948,310.754333 262.492065,305.944489 
	C263.878143,306.336090 264.939240,306.662933 266.159363,307.202301 
	C267.225494,307.629272 268.132568,307.843719 269.291992,308.077240 
	C269.712982,308.098267 269.881653,308.100281 270.287354,308.330841 
	C273.688049,310.369324 276.851685,312.179230 280.201111,314.208435 
	C280.919098,314.613373 281.451355,314.799011 282.181091,315.198242 
	C282.922638,315.581757 283.466736,315.751740 284.243011,316.170898 
	C286.176086,317.383423 287.827454,318.450592 289.587433,319.290070 
	C294.378876,321.575623 299.216278,323.764862 304.035431,325.992310 
	C304.482330,326.581116 304.929230,327.169922 305.603333,327.915283 
	C306.052216,328.889954 306.273987,329.708038 306.707886,330.763489 
z"/>
<path fill="#9D987B" opacity="1.000000" stroke="none" 
	d="
M134.006104,210.000214 
	C134.908463,209.180542 135.810837,208.360870 137.296387,207.269958 
	C143.919907,208.333008 149.960251,209.667297 156.344254,211.053925 
	C163.913528,216.783432 171.150650,222.446228 178.336304,228.173584 
	C178.766541,228.516495 178.785675,229.375214 178.583176,229.992111 
	C176.709946,229.716949 175.257172,229.391281 173.787933,229.179977 
	C169.255951,228.528214 167.246262,230.263702 166.996887,234.985611 
	C162.295578,232.637100 157.653168,230.158051 152.866669,227.998322 
	C150.663635,227.004288 148.178375,226.635742 145.360840,225.637939 
	C142.608154,222.366486 140.230972,219.502014 138.052628,216.493591 
	C136.560516,214.432877 135.345184,212.171753 134.006104,210.000214 
z"/>
<path fill="#A19E84" opacity="1.000000" stroke="none" 
	d="
M167.149811,235.270294 
	C167.246262,230.263702 169.255951,228.528214 173.787933,229.179977 
	C175.257172,229.391281 176.709946,229.716949 178.958984,229.994019 
	C180.499084,229.999298 181.250458,230.000870 182.055664,230.349701 
	C184.701233,237.032959 189.416336,241.360199 195.017471,245.089478 
	C198.916672,247.685623 202.346909,250.986099 205.987152,254.373825 
	C205.985107,255.844604 205.982590,256.913483 205.536896,257.982086 
	C200.064026,257.981415 195.034332,257.981018 189.952438,257.628662 
	C186.782867,248.036423 178.318634,244.646500 170.999954,240.003128 
	C169.767548,238.520401 168.535141,237.037674 167.149811,235.270294 
z"/>
<path fill="#ACA785" opacity="1.000000" stroke="none" 
	d="
M170.998077,240.385956 
	C178.318634,244.646500 186.782867,248.036423 190.016479,258.027710 
	C192.082962,266.232849 191.141678,268.349915 185.540863,269.052551 
	C186.394562,270.789459 187.244751,272.519226 188.094940,274.249023 
	C182.551315,272.032257 177.007675,269.815521 171.219940,267.363037 
	C171.150696,265.999420 170.910904,264.339081 171.566528,263.828552 
	C176.472168,260.008392 173.843399,256.322784 172.216812,252.022827 
	C170.924469,248.606430 171.339294,244.544235 170.998077,240.385956 
z"/>
<path fill="#AA9E6F" opacity="1.000000" stroke="none" 
	d="
M133.645203,209.946686 
	C135.345184,212.171753 136.560516,214.432877 138.052628,216.493591 
	C140.230972,219.502014 142.608154,222.366486 144.955505,225.634766 
	C145.007797,226.148056 145.005142,226.318924 144.999695,226.746109 
	C139.082214,223.938263 133.170288,220.868668 127.250389,217.814514 
	C126.086937,217.214279 124.892715,216.673645 123.356964,216.053375 
	C118.901772,213.367752 114.802292,210.734283 110.351288,208.049835 
	C109.484245,207.447693 108.968742,206.896545 108.164337,205.865387 
	C107.250702,204.923386 106.625954,204.461380 106.001205,203.999390 
	C106.319252,201.513931 102.364059,199.221039 105.834213,196.300354 
	C112.696510,199.520615 119.376854,203.071640 126.096771,206.546127 
	C128.442383,207.758911 130.885635,208.782928 133.645203,209.946686 
z"/>
<path fill="#628FEA" opacity="1.000000" stroke="none" 
	d="
M303.993073,325.649475 
	C299.216278,323.764862 294.378876,321.575623 289.587433,319.290070 
	C287.827454,318.450592 286.176086,317.383423 284.388000,315.863220 
	C284.533081,314.200165 284.765320,313.094055 285.366821,312.046906 
	C290.198639,314.205566 292.136902,311.214630 294.024658,307.975159 
	C294.074860,307.929657 294.176056,307.839569 294.176056,307.839569 
	C295.618988,309.747955 297.061920,311.656311 298.745453,313.784119 
	C300.145844,316.523743 301.305664,319.043945 302.720154,321.785095 
	C303.300140,323.106232 303.625427,324.206451 303.993073,325.649475 
z"/>
<path fill="#7F69FF" opacity="1.000000" stroke="none" 
	d="
M304.304657,365.821869 
	C301.594940,364.761353 298.821045,363.927948 296.838226,362.191315 
	C290.899170,356.989716 285.601044,351.012238 279.410828,346.155823 
	C274.702820,342.462250 269.014587,340.018158 263.223969,336.713989 
	C257.796631,331.275757 252.907761,326.141663 248.294418,320.760925 
	C250.052734,320.347748 251.535522,320.181152 253.307770,320.175232 
	C261.033142,326.646851 268.587158,332.773804 278.344788,336.050049 
	C285.191650,341.969757 291.582886,347.972504 298.262024,353.635773 
	C300.840302,355.821930 304.072052,357.237335 307.006104,359.003906 
	C306.204742,361.214630 305.403412,363.425354 304.304657,365.821869 
z"/>
<path fill="#755EFF" opacity="1.000000" stroke="none" 
	d="
M307.163818,358.656067 
	C304.072052,357.237335 300.840302,355.821930 298.262024,353.635773 
	C291.582886,347.972504 285.191650,341.969757 278.290131,335.704773 
	C275.929077,331.860382 273.963348,328.413818 272.383453,325.031250 
	C274.841583,325.380554 276.913910,325.665863 278.986206,325.951172 
	C288.758667,332.928223 298.531128,339.905304 308.642853,346.922668 
	C308.428619,350.744751 307.875092,354.526489 307.163818,358.656067 
z"/>
<path fill="#8292A4" opacity="1.000000" stroke="none" 
	d="
M256.227142,261.546387 
	C255.354507,267.109680 250.530136,268.362244 246.662003,270.241272 
	C245.226715,270.938507 242.742340,269.476135 240.302185,268.627136 
	C237.681686,266.829498 235.647064,265.028778 233.272614,264.067200 
	C229.928543,262.712952 226.065414,262.351166 225.214722,257.749146 
	C225.169495,256.430267 225.033325,255.303986 224.638428,254.277206 
	C221.787338,246.863800 223.879364,243.563843 231.956940,242.563492 
	C232.737015,242.466888 233.398087,241.409256 234.114395,240.797760 
	C235.187378,241.528412 236.260361,242.259064 237.642136,243.095032 
	C238.993942,244.136139 240.036957,245.071945 241.364365,246.089157 
	C244.056000,248.493652 246.463226,250.816757 249.171753,253.235092 
	C251.098633,255.154846 252.724197,256.979340 254.634964,258.980255 
	C254.920151,259.156647 254.997070,259.600189 255.123993,260.025879 
	C255.426987,260.713104 255.671768,260.860901 255.985275,260.894989 
	C255.985275,260.894989 256.143738,261.330292 256.227142,261.546387 
z"/>
<path fill="#93ABFE" opacity="1.000000" stroke="none" 
	d="
M205.591858,310.004028 
	C209.481293,313.433167 213.002075,316.828674 216.448807,320.297791 
	C217.688904,321.545929 218.750824,322.971039 219.947021,324.656799 
	C218.255386,324.666962 216.510757,324.335693 214.379456,324.003113 
	C204.661011,319.683411 195.158783,315.587372 190.051315,305.347290 
	C195.063889,306.669769 200.128906,308.334656 205.591858,310.004028 
z"/>
<path fill="#628FEA" opacity="1.000000" stroke="none" 
	d="
M292.053284,304.872040 
	C292.511963,305.171967 292.970673,305.471893 293.667236,305.905731 
	C293.959137,306.441376 294.013123,306.843109 294.121582,307.542206 
	C294.176056,307.839569 294.074860,307.929657 293.693848,307.881897 
	C292.893005,306.846741 292.473145,305.859406 292.053284,304.872040 
z"/>
<path fill="#638BD9" opacity="1.000000" stroke="none" 
	d="
M292.015076,304.612610 
	C292.473145,305.859406 292.893005,306.846741 293.643677,307.927368 
	C292.136902,311.214630 290.198639,314.205566 285.356079,311.679718 
	C282.268890,307.427185 279.520996,303.628571 276.879547,299.757355 
	C276.099060,298.613495 275.618988,297.264679 275.001251,296.009766 
	C277.297211,294.514709 279.593170,293.019623 281.974701,291.173889 
	C283.468719,292.456207 284.877136,294.089142 286.550964,295.899414 
	C288.318359,298.330627 289.820343,300.584534 291.564270,303.082275 
	C291.863098,303.668427 291.920013,304.010803 292.015076,304.612610 
z"/>
<path fill="#888F8D" opacity="1.000000" stroke="none" 
	d="
M233.941132,240.550323 
	C233.398087,241.409256 232.737015,242.466888 231.956940,242.563492 
	C223.879364,243.563843 221.787338,246.863800 224.638428,254.277206 
	C225.033325,255.303986 225.169495,256.430267 224.803421,257.732483 
	C218.795013,256.627167 213.408600,255.299881 207.950027,253.564911 
	C208.018936,244.241852 205.249039,236.624023 198.002121,231.001831 
	C201.919373,231.059357 205.957672,230.541992 209.720184,231.334335 
	C213.566803,232.144379 215.083466,230.025192 216.944702,227.342682 
	C219.394089,228.638733 221.785660,230.280273 224.497528,232.000290 
	C226.639694,233.712158 228.461533,235.345581 230.600311,237.089539 
	C231.867447,238.234344 232.817642,239.268616 233.941132,240.550323 
z"/>
<path fill="#AFA069" opacity="1.000000" stroke="none" 
	d="
M106.063354,204.306732 
	C106.625954,204.461380 107.250702,204.923386 107.938271,205.692383 
	C107.375900,205.537613 106.750702,205.075836 106.063354,204.306732 
z"/>
<path fill="#B4CBE0" opacity="1.000000" stroke="none" 
	d="
M255.870972,260.721191 
	C255.671768,260.860901 255.426987,260.713104 255.179657,260.243958 
	C255.362747,260.158234 255.578842,260.328583 255.870972,260.721191 
z"/>
<path fill="#7CA9FD" opacity="1.000000" stroke="none" 
	d="
M211.949127,308.661072 
	C210.284622,308.999420 208.566803,308.997101 206.419174,308.993134 
	C195.155273,301.545013 184.313232,294.109955 173.507675,286.622284 
	C172.888763,286.193420 172.567474,285.334991 172.049805,284.328827 
	C173.740524,282.986206 175.489136,281.991302 177.906982,281.159973 
	C186.714890,286.886200 194.853592,292.448822 202.992294,298.011414 
	C204.847916,300.027527 206.742599,302.009491 208.545334,304.071869 
	C209.730789,305.428009 210.783600,306.900177 211.949127,308.661072 
z"/>
<path fill="#6E9CF8" opacity="1.000000" stroke="none" 
	d="
M203.376007,298.070496 
	C194.853592,292.448822 186.714890,286.886200 178.276703,281.159821 
	C177.981827,280.230103 177.986465,279.464203 177.993195,278.313110 
	C181.807510,277.616211 184.926483,273.242371 189.948547,276.110657 
	C191.738068,276.824371 192.842438,277.432312 194.017426,278.380157 
	C198.717056,283.312683 203.267548,287.988495 208.007050,292.464111 
	C210.504318,294.822357 213.331604,296.831085 216.008514,299.373627 
	C216.008560,300.501892 216.009964,301.254181 216.011368,302.006439 
	C211.927490,300.714142 207.843613,299.421875 203.376007,298.070496 
z"/>
<path fill="#A3A89E" opacity="1.000000" stroke="none" 
	d="
M193.946823,278.040283 
	C192.842438,277.432312 191.738068,276.824371 190.340820,276.106018 
	C189.544327,275.503174 189.040680,275.010681 188.315994,274.383606 
	C187.244751,272.519226 186.394562,270.789459 185.540863,269.052551 
	C191.141678,268.349915 192.082962,266.232849 190.068665,258.379639 
	C195.034332,257.981018 200.064026,257.981415 205.701767,258.275665 
	C210.036285,261.913788 211.878235,267.588440 217.981064,268.462158 
	C218.012772,272.015198 217.487747,275.239258 218.184937,278.172882 
	C219.389099,283.239685 217.022034,284.284210 212.468597,284.057587 
	C206.043121,282.035553 199.994980,280.037903 193.946823,278.040283 
z"/>
<path fill="#9B9472" opacity="1.000000" stroke="none" 
	d="
M156.000610,211.001587 
	C149.960251,209.667297 143.919907,208.333008 137.441071,206.997528 
	C127.725288,199.527313 118.450691,192.054901 109.168114,184.592422 
	C107.512733,183.261597 105.824242,181.971970 104.079666,180.330444 
	C115.311996,184.875366 126.760117,189.450592 137.862640,194.749863 
	C144.050766,197.703476 149.663895,201.861710 155.767792,206.154144 
	C155.999847,208.221329 156.000229,209.611465 156.000610,211.001587 
z"/>
<path fill="#94937E" opacity="1.000000" stroke="none" 
	d="
M156.344254,211.053909 
	C156.000229,209.611465 155.999847,208.221329 155.999115,206.414078 
	C160.577545,208.055664 165.197800,210.028168 169.720261,212.203903 
	C172.649307,213.613068 175.435425,215.319260 178.639435,216.944870 
	C186.260071,218.862534 189.672165,225.041458 193.691437,230.894531 
	C192.383072,231.458435 190.720963,231.899628 190.266144,231.347061 
	C187.810730,228.363968 184.864639,229.676895 182.001831,230.002441 
	C181.250458,230.000870 180.499084,229.999298 179.371902,229.995819 
	C178.785675,229.375214 178.766541,228.516495 178.336304,228.173584 
	C171.150650,222.446228 163.913528,216.783432 156.344254,211.053909 
z"/>
<path fill="#95988C" opacity="1.000000" stroke="none" 
	d="
M182.055664,230.349701 
	C184.864639,229.676895 187.810730,228.363968 190.266144,231.347061 
	C190.720963,231.899628 192.383072,231.458435 193.742767,231.235809 
	C195.065430,230.997559 196.133286,230.999390 197.601639,231.001526 
	C205.249039,236.624023 208.018936,244.241852 207.610580,253.572784 
	C206.891083,253.982864 206.438873,253.977402 205.986649,253.971924 
	C202.346909,250.986099 198.916672,247.685623 195.017471,245.089478 
	C189.416336,241.360199 184.701233,237.032959 182.055664,230.349701 
z"/>
<path fill="#959FA2" opacity="1.000000" stroke="none" 
	d="
M205.987152,254.373840 
	C206.438873,253.977402 206.891083,253.982864 207.682755,253.980469 
	C213.408600,255.299881 218.795013,256.627167 224.592712,257.971130 
	C226.065414,262.351166 229.928543,262.712952 233.272614,264.067200 
	C235.647064,265.028778 237.681686,266.829498 239.929276,268.602814 
	C238.763733,270.435028 237.536880,271.920105 235.715378,273.690216 
	C233.078339,273.976044 231.035950,273.976837 228.832458,273.682312 
	C225.991425,269.832550 222.751251,267.391083 217.974365,268.002441 
	C211.878235,267.588440 210.036285,261.913788 206.144928,258.275940 
	C205.982590,256.913483 205.985107,255.844604 205.987152,254.373840 
z"/>
<path fill="#88A7D7" opacity="1.000000" stroke="none" 
	d="
M240.035751,278.012909 
	C244.058243,278.683411 248.080719,279.353912 252.547028,280.457886 
	C253.326340,283.930359 253.661819,286.969391 253.765228,290.248657 
	C253.642838,291.562775 253.497223,292.748047 253.908432,293.690338 
	C255.340591,296.972168 254.435623,299.021820 250.654205,299.931091 
	C245.205322,297.893921 240.113434,295.919098 234.999634,293.724304 
	C234.977753,293.504333 234.914307,293.066772 235.214081,292.890137 
	C240.062866,289.355072 242.427444,285.256012 240.064011,279.501556 
	C239.888260,279.073669 240.037552,278.512238 240.035751,278.012909 
z"/>
<path fill="#91A7C3" opacity="1.000000" stroke="none" 
	d="
M239.753967,277.856384 
	C240.037552,278.512238 239.888260,279.073669 240.064011,279.501556 
	C242.427444,285.256012 240.062866,289.355072 234.869232,292.824036 
	C231.781662,291.785522 229.338715,290.636536 226.925934,289.065979 
	C229.661469,284.036987 230.047974,279.107391 228.993576,273.977600 
	C231.035950,273.976837 233.078339,273.976044 235.557953,273.969604 
	C237.154190,275.209259 238.313171,276.454559 239.753967,277.856384 
z"/>
<path fill="#7597D7" opacity="1.000000" stroke="none" 
	d="
M253.997314,290.008423 
	C253.661819,286.969391 253.326340,283.930359 252.991455,280.462769 
	C255.409500,280.682007 257.826935,281.329803 260.623901,281.990662 
	C263.966858,286.104797 266.930328,290.205902 269.706299,294.912354 
	C269.342194,296.682495 269.165588,297.847321 268.630005,298.994690 
	C263.513092,295.987640 258.755188,292.998047 253.997314,290.008423 
z"/>
<path fill="#6A92E0" opacity="1.000000" stroke="none" 
	d="
M268.989014,299.012115 
	C269.165588,297.847321 269.342194,296.682495 269.759399,295.257141 
	C271.422180,295.325195 272.844330,295.653778 274.633850,295.996063 
	C275.618988,297.264679 276.099060,298.613495 276.879547,299.757355 
	C279.520996,303.628571 282.268890,307.427185 284.986816,311.620758 
	C284.765320,313.094055 284.533081,314.200165 284.155823,315.613983 
	C283.466736,315.751740 282.922638,315.581757 281.999176,314.976135 
	C281.084991,314.356720 280.550171,314.172943 280.015350,313.989136 
	C276.851685,312.179230 273.688049,310.369324 270.270447,307.898254 
	C269.674011,304.495422 269.331512,301.753754 268.989014,299.012115 
z"/>
<path fill="#8486FD" opacity="1.000000" stroke="none" 
	d="
M248.018890,321.007568 
	C252.907761,326.141663 257.796631,331.275757 262.852783,336.703094 
	C263.269440,337.498932 263.518799,338.001556 263.880127,338.762207 
	C261.243317,338.387177 258.494629,337.754089 255.371429,337.063293 
	C248.217575,331.066040 239.342773,327.404053 235.426773,318.405334 
	C239.839386,319.074158 243.929123,320.040863 248.018890,321.007568 
z"/>
<path fill="#6D7BFF" opacity="1.000000" stroke="none" 
	d="
M248.294403,320.760925 
	C243.929123,320.040863 239.839386,319.074158 235.378754,318.052856 
	C228.869400,312.773285 222.730896,307.548309 216.301880,302.164856 
	C216.009964,301.254181 216.008560,300.501892 216.379517,299.388916 
	C219.137054,299.895142 221.833618,301.916687 223.839111,301.375793 
	C227.423141,300.409180 230.590393,297.897156 234.247269,296.166595 
	C238.341003,299.187744 241.991699,302.264313 245.934982,304.903656 
	C249.601990,307.358124 253.972794,308.952057 254.631348,313.993408 
	C252.599533,314.144958 250.542114,313.897491 252.111954,316.729858 
	C252.647186,317.695557 252.729218,318.912445 253.018311,320.014557 
	C251.535522,320.181152 250.052734,320.347748 248.294403,320.760925 
z"/>
<path fill="#6069EB" opacity="1.000000" stroke="none" 
	d="
M254.990021,313.989502 
	C253.972794,308.952057 249.601990,307.358124 245.934982,304.903656 
	C241.991699,302.264313 238.341003,299.187744 234.301544,295.865845 
	C234.367477,294.934540 234.694504,294.439423 235.021530,293.944275 
	C240.113434,295.919098 245.205322,297.893921 250.900040,300.174652 
	C255.057587,302.280304 258.612335,304.080017 262.167084,305.879730 
	C261.815948,310.754333 265.685699,312.928925 268.541626,315.696350 
	C271.915588,318.965820 275.429108,322.091217 278.934143,325.615143 
	C276.913910,325.665863 274.841583,325.380554 272.163208,324.777252 
	C266.034760,320.969330 260.512390,317.479431 254.990021,313.989502 
z"/>
<path fill="#7CA1DF" opacity="1.000000" stroke="none" 
	d="
M262.492065,305.944489 
	C258.612335,304.080017 255.057587,302.280304 251.257019,300.237000 
	C254.435623,299.021820 255.340591,296.972168 253.908432,293.690338 
	C253.497223,292.748047 253.642838,291.562775 253.765228,290.248657 
	C258.755188,292.998047 263.513092,295.987640 268.630005,298.994690 
	C269.331512,301.753754 269.674011,304.495422 270.033386,307.669678 
	C269.881653,308.100281 269.712982,308.098267 269.062592,307.829926 
	C267.720703,307.372314 266.860504,307.181061 266.000305,306.989807 
	C264.939240,306.662933 263.878143,306.336090 262.492065,305.944489 
z"/>
<path fill="#6A92E0" opacity="1.000000" stroke="none" 
	d="
M266.159363,307.202332 
	C266.860504,307.181061 267.720703,307.372314 268.810303,307.810883 
	C268.132568,307.843719 267.225494,307.629272 266.159363,307.202332 
z"/>
<path fill="#628FEA" opacity="1.000000" stroke="none" 
	d="
M280.201111,314.208435 
	C280.550171,314.172943 281.084991,314.356720 281.801697,314.762573 
	C281.451355,314.799011 280.919098,314.613373 280.201111,314.208435 
z"/>
<path fill="#716BFF" opacity="1.000000" stroke="none" 
	d="
M254.631348,313.993408 
	C260.512390,317.479431 266.034760,320.969330 271.777374,324.713226 
	C273.963348,328.413818 275.929077,331.860382 277.949463,335.652283 
	C268.587158,332.773804 261.033142,326.646851 253.307770,320.175232 
	C252.729218,318.912445 252.647186,317.695557 252.111954,316.729858 
	C250.542114,313.897491 252.599533,314.144958 254.631348,313.993408 
z"/>
<path fill="#6688FA" opacity="1.000000" stroke="none" 
	d="
M234.999634,293.724304 
	C234.694504,294.439423 234.367477,294.934540 233.986176,295.730469 
	C230.590393,297.897156 227.423141,300.409180 223.839111,301.375793 
	C221.833618,301.916687 219.137054,299.895142 216.380890,299.012939 
	C213.331604,296.831085 210.504318,294.822357 208.007050,292.464111 
	C203.267548,287.988495 198.717056,283.312683 194.017426,278.380157 
	C199.994980,280.037903 206.043121,282.035553 212.700516,284.331116 
	C217.838425,286.248535 222.367096,287.868042 226.895767,289.487549 
	C229.338715,290.636536 231.781662,291.785522 234.569458,293.000641 
	C234.914307,293.066772 234.977753,293.504333 234.999634,293.724304 
z"/>
<path fill="#9BABB8" opacity="1.000000" stroke="none" 
	d="
M226.925934,289.065979 
	C222.367096,287.868042 217.838425,286.248535 213.077850,284.355530 
	C217.022034,284.284210 219.389099,283.239685 218.184937,278.172882 
	C217.487747,275.239258 218.012772,272.015198 217.981064,268.462158 
	C222.751251,267.391083 225.991425,269.832550 228.832458,273.682312 
	C230.047974,279.107391 229.661469,284.036987 226.925934,289.065979 
z"/>
</svg>